<svg width="277" height="300" viewBox="0 0 277 300" fill="none" xmlns="http://www.w3.org/2000/svg">
<path d="M38.2276 137.406C51.8671 128.628 67.7043 124.051 83.289 119.587C110.798 111.707 138.43 103.8 166.796 100.071C174.103 99.1101 181.543 98.4307 188.82 99.5961C196.097 100.762 203.278 103.949 208.015 109.608C216.684 119.962 215.152 135.202 212.835 148.519C208.925 170.991 203.979 193.752 192.535 213.469C181.09 233.186 162.07 249.674 139.525 252.779C116.047 256.012 93.3767 244.748 70.7614 237.648C56.2775 233.101 41.2791 230.201 26.1471 229.022C20.0819 228.549 3.20834 229.811 1.43629 222.94C-0.50755 215.403 -0.190149 206.675 0.703176 199.017C2.54094 183.264 8.79034 168.029 18.5284 155.531C24.0409 148.456 30.6871 142.26 38.2276 137.406Z" fill="#4492B9"/>
<path d="M49.7944 193.01C49.5363 193.01 49.301 192.837 49.2327 192.574C47.3043 185.149 48.29 177.021 51.9363 170.275C52.0887 169.993 52.4409 169.887 52.7239 170.041C53.0057 170.194 53.1105 170.548 52.958 170.83C49.4504 177.319 48.5025 185.138 50.3571 192.281C50.4378 192.592 50.2514 192.911 49.9413 192.991C49.8919 193.004 49.8425 193.01 49.7944 193.01Z" fill="white"/>
<path d="M149.776 248.603C142.864 251.45 135.151 251.31 127.682 251.415C119.144 251.532 110.601 252.015 102.075 251.613C92.5328 251.171 83.0772 249.622 73.6565 248.079C56.0816 245.203 38.4079 242.304 21.5941 236.441C19.9329 235.859 18.2373 235.23 16.8895 234.089C14.5085 232.074 13.6079 228.831 12.946 225.775C12.1562 222.107 11.5403 218.375 11.6043 214.619C11.7843 204.262 17.4702 194.288 25.9499 188.367C34.4297 182.44 45.4356 180.519 55.5589 182.609C60.1939 183.564 64.6138 185.304 68.9636 187.127C70.706 187.861 72.4832 188.647 74.2896 189.421C80.1907 191.948 86.3993 194.311 92.7415 193.997C95.181 193.875 97.562 193.048 99.8795 194.172C103.184 195.778 105.345 198.736 109.004 199.936C117.245 202.649 126.439 198.568 134.843 200.704C136.574 201.141 138.276 201.869 139.565 203.103C140.732 204.227 141.487 205.694 142.388 207.045C144.223 209.804 146.639 212.075 149.154 214.253C150.676 215.574 152.238 216.867 153.731 218.212C157.686 221.781 161.368 226.217 161.897 231.521C162.635 238.979 156.687 245.756 149.776 248.603Z" fill="#312A20"/>
<path d="M149.154 214.252C148.353 216.989 147.255 219.667 145.042 221.373C143.695 222.415 142.045 222.986 140.384 223.358C136.888 224.15 133.264 224.138 129.68 224.121C126.556 224.103 123.437 224.092 120.312 224.074C117.948 224.063 115.555 224.051 113.261 223.475C108.772 222.345 105.054 219.16 102.11 215.574C99.1653 211.993 96.8246 207.953 93.9613 204.308C92.3932 202.317 90.6276 200.413 88.4265 199.156C86.4809 198.043 84.2738 197.479 82.2411 196.536C79.4533 195.243 75.7769 192.6 74.2901 189.421C80.1912 191.948 86.3998 194.312 92.7419 193.997C95.1814 193.875 97.5625 193.048 99.88 194.172C103.185 195.779 105.345 198.737 109.004 199.936C117.246 202.649 126.44 198.568 134.844 200.705C136.575 201.141 138.276 201.869 139.566 203.104C140.733 204.227 141.488 205.694 142.388 207.045C144.223 209.804 146.64 212.075 149.154 214.252Z" fill="#201600"/>
<path d="M150.455 186.242C150.246 194.468 148.26 200.948 145.112 205.891C139.293 215.061 129.495 218.962 119.714 218.968C116.096 218.968 112.6 217.518 109.37 215.259C102.529 210.473 96.889 202.043 93.8397 196.081C89.3503 187.301 87.1316 177.508 86.1266 167.698C85.8887 165.346 85.7143 162.936 86.2546 160.636C86.4173 159.931 86.7309 159.145 87.4163 158.907C88.2641 158.61 89.1063 159.314 89.7338 159.966C95.0654 165.561 99.8048 171.739 103.824 178.353C104.317 178.12 104.817 177.887 105.316 177.654C106.768 176.984 108.226 176.315 109.701 175.68C110.95 175.133 112.205 174.615 113.477 174.12C115.527 173.328 117.6 172.624 119.697 172.059C121.131 171.669 122.572 171.343 124.024 171.116C125.871 170.813 127.741 170.65 129.617 170.667C130.366 170.667 131.115 170.702 131.864 170.761C132.306 170.802 132.84 170.807 133.09 170.441C133.223 170.249 132.37 158.563 134.495 150.791C134.647 150.244 135.895 145.353 137.51 145.423C139.409 145.511 140.664 148.299 141.018 149.33C143.475 156.345 144.898 160.438 147.07 167.553C148.039 170.732 150.531 183.214 150.455 186.242Z" fill="#312A20"/>
<path d="M100.325 179.186C98.1199 176.271 95.8819 173.382 93.6107 170.519C92.434 169.036 91.2288 167.54 89.6951 166.431C89.4684 166.267 89.1798 166.105 88.9238 166.218C88.7503 166.295 88.6506 166.477 88.5781 166.653C88.167 167.65 88.2585 168.776 88.3805 169.848C88.9079 174.484 89.8837 179.065 91.2804 183.516C91.7176 184.909 91.7232 185.343 92.839 184.191C93.5244 183.484 94.2589 182.824 95.0349 182.218C95.4825 181.867 99.9839 178.734 100.325 179.186Z" fill="#EFEFEF"/>
<path d="M135.167 170.652C135.538 167.014 136.003 163.407 136.457 159.777C136.693 157.896 136.946 155.99 137.68 154.244C137.789 153.985 137.952 153.697 138.229 153.66C138.416 153.635 138.596 153.738 138.749 153.851C139.617 154.488 140.123 155.498 140.576 156.477C142.531 160.711 144.074 165.133 145.19 169.662C145.54 171.08 145.76 171.453 144.21 171.051C143.257 170.804 142.287 170.624 141.31 170.51C140.747 170.445 135.224 170.088 135.167 170.652Z" fill="#EFEFEF"/>
<path d="M109.01 190.988C109.461 192.848 108.322 194.722 106.467 195.174C104.612 195.626 102.742 194.485 102.291 192.625C101.84 190.765 102.979 188.891 104.834 188.439C106.689 187.987 108.559 189.128 109.01 190.988Z" fill="#201600"/>
<path d="M138.139 184.56C138.59 186.42 137.452 188.294 135.596 188.746C133.741 189.198 131.871 188.057 131.42 186.197C130.969 184.337 132.108 182.463 133.963 182.011C135.819 181.559 137.688 182.7 138.139 184.56Z" fill="#201600"/>
<path d="M111.427 198.731C111.412 198.734 111.397 198.737 111.382 198.738L100.423 199.351C100.286 199.359 100.169 199.254 100.161 199.116C100.153 198.979 100.257 198.86 100.395 198.854L111.354 198.24C111.491 198.233 111.608 198.338 111.616 198.475C111.623 198.597 111.541 198.703 111.427 198.731Z" fill="#EFEFEF"/>
<path d="M101.764 204.69C101.638 204.721 101.509 204.65 101.469 204.525C101.427 204.394 101.498 204.254 101.628 204.211L112.159 200.799C112.293 200.755 112.43 200.829 112.472 200.96C112.514 201.09 112.442 201.231 112.312 201.273L101.781 204.685C101.775 204.687 101.769 204.689 101.764 204.69Z" fill="#EFEFEF"/>
<path d="M104.755 209.184C104.659 209.207 104.555 209.172 104.494 209.087C104.414 208.975 104.44 208.819 104.551 208.739L112.821 202.812C112.932 202.733 113.087 202.758 113.168 202.87C113.248 202.982 113.222 203.137 113.11 203.217L104.841 209.144C104.814 209.164 104.784 209.177 104.755 209.184Z" fill="#EFEFEF"/>
<path d="M134.206 193.401C134.22 193.398 134.234 193.393 134.249 193.386L144.266 188.889C144.391 188.833 144.447 188.686 144.391 188.56C144.335 188.434 144.188 188.377 144.063 188.434L134.045 192.931C133.92 192.988 133.864 193.135 133.92 193.261C133.97 193.372 134.092 193.429 134.206 193.401Z" fill="#EFEFEF"/>
<path d="M145.519 194.25C145.645 194.219 145.727 194.097 145.706 193.967C145.683 193.831 145.555 193.74 145.42 193.762L134.502 195.576C134.362 195.598 134.275 195.726 134.297 195.862C134.32 195.997 134.448 196.089 134.583 196.067L145.501 194.254C145.507 194.253 145.514 194.252 145.519 194.25Z" fill="#EFEFEF"/>
<path d="M144.919 199.619C145.015 199.595 145.092 199.516 145.107 199.413C145.126 199.276 145.032 199.15 144.896 199.13L134.836 197.668C134.701 197.649 134.574 197.743 134.554 197.879C134.534 198.015 134.628 198.142 134.764 198.162L144.825 199.623C144.858 199.628 144.89 199.626 144.919 199.619Z" fill="#EFEFEF"/>
<path d="M107.955 189.478C108.098 190.068 107.737 190.663 107.149 190.806C106.56 190.95 105.967 190.588 105.824 189.998C105.681 189.408 106.042 188.813 106.631 188.67C107.219 188.527 107.812 188.888 107.955 189.478Z" fill="white"/>
<path d="M145.112 205.891C139.292 215.061 129.494 218.962 119.714 218.968C116.096 218.968 112.599 217.518 109.37 215.259C109.405 215.056 109.445 214.852 109.492 214.648C109.974 212.476 110.828 210.386 112.001 208.5C113.145 206.672 114.649 204.826 114.539 202.672C114.47 201.402 113.83 200.215 113.761 198.94C113.674 197.275 114.562 195.738 114.992 194.125C115.451 192.396 115.376 190.585 115.411 188.798C115.445 187.01 115.608 185.165 116.479 183.604C117.618 181.573 120.068 180.251 121.875 182.032C123.925 184.064 124.819 187.028 126.939 189.042C128.624 190.643 130.929 191.68 132.01 193.735C132.968 195.569 132.788 197.95 134.141 199.511C134.861 200.343 135.913 200.803 136.941 201.211C139.891 202.375 143.138 203.47 145.112 205.891Z" fill="white"/>
<path d="M137.166 182.997C137.309 183.587 136.947 184.182 136.359 184.325C135.771 184.469 135.178 184.107 135.034 183.517C134.891 182.927 135.253 182.332 135.841 182.189C136.429 182.045 137.023 182.407 137.166 182.997Z" fill="white"/>
<path d="M120.491 199.756C118.478 200.246 116.083 199.757 115.945 199.729C115.81 199.701 115.724 199.569 115.753 199.434C115.781 199.3 115.912 199.213 116.047 199.241C116.09 199.25 120.463 200.141 122.119 198.347C122.804 197.604 122.932 196.471 122.498 194.981C122.459 194.849 122.535 194.71 122.667 194.672C122.797 194.633 122.936 194.709 122.975 194.841C123.461 196.511 123.296 197.805 122.483 198.685C121.973 199.238 121.259 199.569 120.491 199.756Z" fill="#48443E"/>
<path d="M126.535 198.419C125.98 198.554 125.422 198.58 124.896 198.431C123.767 198.111 122.985 197.046 122.575 195.266C122.544 195.133 122.627 195 122.759 194.968C122.759 194.968 122.76 194.967 122.762 194.967C122.895 194.936 123.029 195.019 123.06 195.154C123.426 196.743 124.089 197.684 125.031 197.951C127.257 198.583 130.412 195.411 130.443 195.379C130.539 195.281 130.697 195.28 130.795 195.376C130.892 195.473 130.893 195.631 130.797 195.729C130.689 195.84 128.631 197.908 126.535 198.419Z" fill="#48443E"/>
<path d="M119.688 194.005C118.538 192.659 124.208 190.939 124.913 192.008C125.506 192.908 122.73 197.631 119.688 194.005Z" fill="#6B6966"/>
<path d="M121.336 117.328C113.278 121.674 103.881 123.522 94.7824 122.534C92.1467 122.247 90.2724 119.859 90.5327 117.215C90.7397 115.108 90.7947 112.959 90.6834 110.815C90.4803 106.757 89.6785 102.728 88.186 99.0778C86.9143 95.9689 84.7652 93.244 83.9753 90.3095C83.3947 88.196 83.5222 85.9779 85.1835 83.4162C87.7101 79.5212 92.4899 77.5709 97.1188 77.3203C101.748 77.0641 106.324 78.2636 110.802 79.451C112.974 80.0275 115.292 80.6909 116.726 82.4204C117.243 83.0434 117.603 83.7477 117.859 84.499C118.37 85.9719 118.492 87.6316 118.643 89.2091C118.951 92.3937 119.497 95.5552 120.281 98.6585C121.206 102.361 122.466 105.98 124.041 109.457C125.362 112.374 124.15 115.811 121.336 117.328Z" fill="#FFBC91"/>
<path d="M120.281 98.6589C120.142 98.8044 120.008 98.9443 119.869 99.0782C114.131 104.766 106.969 109.308 99.0068 110.629C96.2538 111.089 93.4484 111.142 90.6839 110.816C90.4807 106.758 89.6789 102.729 88.1864 99.0782C86.9147 95.9693 84.7656 93.2445 83.9758 90.3099C87.1875 87.4689 91.2534 85.6348 95.3824 84.4181C102.608 82.293 110.495 81.8969 117.598 84.4004C117.685 84.4297 117.772 84.4646 117.859 84.4995C118.371 85.9723 118.492 87.632 118.643 89.2095C118.951 92.3942 119.497 95.5556 120.281 98.6589Z" fill="#EF9B6C"/>
<path d="M140.01 224.378C142.903 222.939 145.797 221.5 148.69 220.061C149.586 221.634 148.273 223.585 146.786 224.614C145.298 225.643 143.464 226.411 142.671 228.039C148.095 226.061 153.795 224.843 159.552 224.433C162.076 224.253 164.978 224.385 166.598 226.332C167.326 227.206 167.681 228.345 167.774 229.479C168.047 232.822 166.12 236.064 163.469 238.11C160.817 240.156 157.527 241.18 154.258 241.898C144.029 244.144 133.275 243.741 123.145 241.081C122.541 240.922 121.879 240.71 121.569 240.167C120.025 237.455 122.298 231.053 124.975 229.658C129.362 227.372 136.205 228.192 140.01 224.378Z" fill="#FFBC91"/>
<path d="M116.599 95.3811C110.547 103.311 99.2332 106.653 88.7731 105.995C82.1578 105.581 75.438 103.66 70.5651 99.4915C67.0047 96.4523 64.6352 92.4057 62.7069 88.2898C57.776 77.7284 55.4469 66.1422 55.836 54.6379C55.9988 49.8056 56.6434 44.9849 57.776 40.2628C58.8097 35.9368 60.7785 30.7785 63.8218 26.4642C67.0047 21.9578 71.3549 18.377 77.0465 17.661C86.7691 16.4383 95.6375 20.7815 102.323 26.8133C103.519 27.8905 104.646 29.0198 105.691 30.1844C110.5 35.5174 115.385 40.9555 118.265 47.3714C121.495 54.5557 122.011 62.4973 122.191 70.2758V70.3572C122.384 79.0264 122.006 88.307 116.599 95.3811Z" fill="#FFBC91"/>
<path d="M17.7455 190.706C20.6969 183.271 25.6472 176.741 31.4873 171.288C35.7379 167.318 40.4987 163.852 44.1914 159.357C47.8845 154.861 50.4602 148.966 49.3044 143.259C48.0379 137.007 42.7655 132.519 38.0876 128.193C33.4101 123.867 28.7102 118.379 29.1973 112.018C29.3141 110.49 29.7668 108.937 30.7808 107.791C32.1878 106.201 34.4971 105.635 36.5977 105.925C38.6983 106.216 40.6241 107.253 42.3811 108.443C49.1683 113.041 54.0086 120.048 57.5694 127.443C62.4015 137.48 65.0274 149.721 59.8074 159.56C56.2548 166.258 49.6978 170.696 43.713 175.338C37.7281 179.979 31.7583 185.639 30.35 193.092C29.668 196.7 30.1314 200.413 30.0928 204.085C30.0541 207.757 29.4004 211.663 26.9343 214.378C23.1218 218.577 16.984 217.551 15.5569 212.199C13.7213 205.316 15.1716 197.189 17.7455 190.706Z" fill="#312A20"/>
<path d="M125.853 254.711C118.413 258.064 110.485 259.526 102.354 260.09C100.275 257.761 98.0679 255.549 95.7736 253.43C86.2198 244.592 75.3182 237.401 65.1832 229.268C62.2039 226.875 58.4343 224.208 55.2922 221.262C66.7341 224.039 78.5591 225.501 90.3024 226.688C102.046 227.876 113.993 228.82 125.58 226.549C127.078 235.852 127.171 245.383 125.853 254.711Z" fill="#244CB2"/>
<path d="M102.354 260.09C92.428 260.777 82.2119 260.131 72.2569 259.95C62.4531 259.775 52.6144 260.096 42.8802 258.919C33.152 257.743 23.389 254.966 15.4667 249.179C6.4643 242.617 0.0658423 222.872 0.0194581 211.717C-0.0153301 203.898 3.40981 205.117 9.00254 199.655C11.1805 197.53 17.2168 178.471 16.2836 195.124C16.1904 196.785 17.7142 200.459 18.6728 202.013C19.8981 203.999 21.4434 205.786 23.1738 207.346C26.8446 210.648 31.2992 212.959 35.835 214.904C42.1308 217.599 48.6473 219.655 55.2914 221.261C58.4335 224.208 62.2027 226.874 65.1824 229.267C75.3174 237.4 86.219 244.591 95.7728 253.429C98.0676 255.549 100.275 257.761 102.354 260.09Z" fill="#4492B9"/>
<path d="M124.282 65.2847C125.456 64.4976 126.728 63.7937 128.123 63.5733C129.519 63.3528 131.065 63.6882 132.029 64.7232C132.537 65.2691 132.854 65.9679 133.084 66.6783C134.21 70.1471 133.368 74.152 131.058 76.9707C128.748 79.7894 125.076 81.3854 121.438 81.3087C119.88 81.276 118.226 80.8989 117.155 79.7635C112.128 74.4296 120.328 67.9355 124.282 65.2847Z" fill="#FFBC91"/>
<path d="M127.558 62.1891C127.018 64.4016 126.24 66.6137 124.753 68.3372C124.05 69.1466 123.167 69.8277 122.192 70.2759C121.105 70.7822 119.903 70.9979 118.724 70.7705C116.331 70.3163 114.537 68.168 113.788 65.8452C113.038 63.5165 113.137 61.0185 113.247 58.5735C113.34 56.4832 113.433 54.393 113.526 52.2971C108.717 52.5124 103.914 49.5723 101.91 45.1882C96.2998 49.3975 89.7424 52.3204 82.866 53.671C79.9678 54.2414 77.0172 54.5325 74.0727 54.7654C68.2936 55.2252 61.847 55.5399 55.8355 54.6375C55.9983 49.8052 56.643 44.9845 57.7755 40.2624C58.8093 35.9364 60.7781 30.7782 63.8214 26.4638C76.169 23.0402 89.6436 23.8612 102.322 26.8129C103.507 27.0807 104.686 27.3778 105.854 27.6861C110.221 28.8446 114.606 30.2654 118.282 32.8852C122.708 36.035 125.874 40.8264 127.395 46.0492C128.923 51.2725 128.848 56.9026 127.558 62.1891Z" fill="#EF9B6C"/>
<path d="M33.4045 240.911C31.4937 240.012 29.4833 238.766 28.3834 237.056C27.6752 235.955 28.6037 234.523 29.9016 234.675C33.992 235.153 37.8891 238.244 42.1303 238.122C41.8855 237.256 41.0054 236.759 40.204 236.354C36.1536 234.307 32.1027 232.26 28.0522 230.213C25.441 228.893 22.2061 227.527 21.8015 224.624C21.7607 224.332 22.0605 223.63 22.2387 223.396C22.3925 223.193 22.6489 223.102 22.8937 223.036C26.5568 222.053 30.1644 224.431 33.4573 226.316C36.9945 228.341 40.7916 229.91 44.7256 230.97C45.168 231.089 45.6705 230.932 45.8977 230.534C46.2202 229.969 45.7504 229.463 45.3196 229.107C39.4374 224.236 31.8974 221.892 25.4655 217.779C24.7169 217.301 23.9648 216.779 23.4718 216.039C22.9787 215.299 22.7971 214.286 23.2437 213.517C23.592 212.918 24.2552 212.565 24.9243 212.389C26.7831 211.9 28.7338 212.552 30.5248 213.25C36.139 215.438 41.5427 218.17 46.6368 221.393C47.8592 222.166 49.1442 222.994 50.5885 223.045C51.3607 221.649 49.8271 220.132 48.4853 219.273L39.757 213.683C39.2278 213.344 38.7528 212.915 38.4183 212.382C36.9039 209.971 39.1003 208.332 40.9943 208.436C42.333 208.509 43.5424 209.221 44.6921 209.913C51.2426 213.857 57.7935 217.801 64.344 221.745C65.0561 222.174 65.806 222.611 66.5838 222.909C67.5965 223.299 68.4469 222.036 67.7313 221.219C65.9786 219.218 63.2029 217.931 61.5631 215.737C61.1255 215.151 60.7505 214.405 61.3003 213.68C61.7383 213.102 62.5144 212.877 63.2162 213.055C68.9271 214.497 74.0431 218.145 77.2998 223.06C78.255 224.501 79.0736 226.069 80.344 227.241C81.3808 228.197 82.6615 228.835 83.8555 229.585C87.4288 231.828 90.3613 235.276 91.4225 239.366C92.4834 243.457 91.4556 248.167 88.3724 251.05C85.7989 253.455 81.8463 254.605 78.3692 254.577C75.1022 254.552 71.2785 251.902 68.096 250.869C60.684 248.463 52.9777 247.171 45.4613 245.155C41.343 244.05 37.2689 242.73 33.4045 240.911Z" fill="#FFBC91"/>
<path d="M115.902 47.3473C115.339 52.5271 115.434 57.7783 116.184 62.9344C116.411 64.4946 116.722 66.1057 117.646 67.3814C118.57 68.6575 120.276 69.4966 121.751 68.9503C123.76 68.2067 124.521 65.3527 126.619 64.9295C127.697 64.7121 128.996 65.1818 129.807 64.437C130.133 64.1369 130.292 63.6999 130.432 63.2788C133.972 52.6773 133.365 40.7446 128.77 30.5582C128.35 29.6278 127.887 28.6436 128.026 27.6322C128.207 26.3135 129.334 25.3724 130.189 24.3542C131.847 22.3793 132.632 19.6936 132.298 17.1341C130.307 16.8865 128.265 17.0557 126.342 17.6271C127.243 16.081 128.166 14.4648 128.296 12.6793C128.427 10.8939 127.506 8.89452 125.789 8.40328C123.896 7.86167 122.021 9.28717 120.747 10.7915C119.147 12.6811 117.885 14.8579 117.04 17.1875C116.729 18.0451 116.358 19.0439 115.487 19.31C114.935 19.4788 114.345 19.2885 113.801 19.0939C95.866 12.6776 79.4486 0.0500442 60.4061 0.000102164C56.6013 -0.00980014 52.4164 0.696708 49.9688 3.61703C47.5212 6.53734 48.4162 12.1248 52.154 12.8386C46.0146 11.6603 39.2493 12.5605 34.3163 16.4086C29.3832 20.2572 26.833 27.3778 29.2883 33.1401C31.3434 37.9634 36.2636 40.9444 41.2164 42.6355C47.4044 44.7486 53.9935 45.3393 60.5152 45.7866C72.5695 46.6132 85.0168 46.9775 96.7726 43.7157C104.104 41.6819 102.936 41.7848 106.704 47.2315C108.677 50.0846 114.398 51.9338 115.902 47.3473Z" fill="#F0A050"/>
<path d="M75.2675 253.027C75.0957 254.203 74.9501 255.461 75.4646 256.532C76.1213 257.898 77.6503 258.571 79.0624 259.116C104.961 269.124 132.924 273.726 160.655 272.546C169.905 272.153 179.271 271.088 187.836 267.564C199.922 262.591 209.887 252.653 214.913 240.564C218.252 232.534 219.439 223.792 220.393 215.144C223.251 189.254 224.28 162.959 220.161 137.24C218.252 125.319 214.264 112.241 203.688 106.465C196.346 102.456 187.342 102.951 179.241 105.018C175.187 106.052 171.166 107.481 167.77 109.929C158.354 116.713 155.785 129.478 154.636 141.045C153.487 152.606 153.021 164.236 153.241 175.853C153.546 191.991 155.162 208.304 152.139 224.159C151.602 226.977 150.854 229.899 148.926 232.02C146.227 234.991 141.895 235.706 137.901 236.042C123.083 237.286 108.039 235.675 93.8023 231.377C89.4254 230.056 83.4685 226.511 80.2456 231.257C76.6981 236.48 76.1638 246.888 75.2675 253.027Z" fill="#4492B9"/>
<path d="M151.296 228.101C151.241 228.101 151.184 228.094 151.128 228.076C150.821 227.984 150.647 227.658 150.74 227.351C154.401 215.196 153.857 202.153 153.33 189.538C152.879 178.703 152.411 167.5 154.566 156.76C154.629 156.445 154.934 156.239 155.25 156.304C155.564 156.368 155.768 156.675 155.705 156.99C153.578 167.591 154.042 178.724 154.491 189.489C155.021 202.201 155.569 215.345 151.852 227.688C151.776 227.939 151.546 228.101 151.296 228.101Z" fill="white"/>
<path d="M153.098 174.451C152.899 174.451 152.705 174.349 152.597 174.164C150.099 169.907 148.672 165.047 148.472 160.112C148.459 159.791 148.707 159.52 149.028 159.507C149.341 159.473 149.619 159.743 149.632 160.065C149.825 164.809 151.197 169.481 153.598 173.574C153.761 173.851 153.668 174.208 153.392 174.372C153.299 174.426 153.198 174.451 153.098 174.451Z" fill="white"/>
<path d="M24.0632 207.577C23.9211 207.577 23.7789 207.525 23.6672 207.421C20.0351 204.026 17.5918 200.669 16.1968 197.16C14.4647 192.801 14.4591 188.185 16.1813 184.494C16.317 184.202 16.6619 184.077 16.9535 184.213C17.2439 184.349 17.3693 184.697 17.2336 184.988C15.6471 188.388 15.6621 192.668 17.2765 196.729C18.6062 200.076 20.9559 203.294 24.4601 206.569C24.6946 206.789 24.7074 207.157 24.4888 207.392C24.3737 207.515 24.2187 207.577 24.0632 207.577Z" fill="white"/>
<path d="M103.611 267.421C103.579 267.421 103.547 267.419 103.514 267.413C93.9737 265.81 84.8029 262.693 76.2562 258.15C75.8443 257.93 75.2804 257.631 74.9239 257.093C74.5189 256.481 74.4996 255.767 74.5142 255.087C74.5962 251.289 75.0781 247.488 75.9461 243.79C76.0195 243.476 76.3326 243.285 76.6444 243.356C76.9567 243.43 77.1504 243.743 77.0769 244.057C76.2274 247.675 75.7558 251.395 75.6755 255.112C75.6643 255.628 75.6725 256.118 75.8915 256.449C76.0698 256.719 76.4082 256.913 76.7995 257.12C85.2358 261.605 94.288 264.681 103.706 266.265C104.022 266.318 104.235 266.618 104.182 266.935C104.135 267.22 103.89 267.421 103.611 267.421Z" fill="white"/>
<path d="M99.9268 124.038C98.2204 124.038 96.5115 123.884 94.8271 123.504C92.0045 122.867 90.1599 121.341 89.8936 119.422C89.8494 119.104 90.071 118.81 90.3888 118.765C90.7053 118.718 91 118.943 91.0438 119.262C91.3358 121.365 94.2086 122.171 95.0822 122.368C100.366 123.562 106.023 122.395 111.015 121.367C111.331 121.304 111.636 121.505 111.701 121.82C111.765 122.135 111.563 122.443 111.248 122.508C107.698 123.238 103.819 124.038 99.9268 124.038Z" fill="white"/>
<path d="M145.727 104.212C145.459 104.212 145.218 104.026 145.159 103.752C145.092 103.438 145.292 103.129 145.605 103.061C153.385 101.385 161.348 100.177 169.274 99.4721C169.594 99.4458 169.876 99.6809 169.904 100C169.933 100.321 169.697 100.604 169.377 100.632C161.498 101.333 153.583 102.533 145.849 104.199C145.808 104.208 145.767 104.212 145.727 104.212Z" fill="white"/>
<path d="M90.2428 106.582C90.2372 106.582 90.232 106.582 90.2265 106.582C81.9078 106.351 73.6935 102.906 67.6902 97.1284C67.4587 96.9054 67.451 96.5373 67.6734 96.3052C67.8955 96.0727 68.2631 96.0658 68.4946 96.288C74.2926 101.868 82.2256 105.195 90.2587 105.417C90.5795 105.426 90.832 105.694 90.8234 106.015C90.8144 106.331 90.5563 106.582 90.2428 106.582Z" fill="white"/>
<path d="M69.0834 46.8978C59.1168 46.8978 49.2202 45.5093 39.6178 42.7607C39.3094 42.6721 39.1308 42.3504 39.2188 42.0409C39.3069 41.7318 39.6281 41.5561 39.9365 41.6405C50.4708 44.656 61.3617 46.0208 72.3096 45.6836C72.6292 45.6905 72.898 45.9269 72.9079 46.2481C72.9174 46.5693 72.6657 46.8375 72.3448 46.8478C71.2574 46.881 70.1695 46.8978 69.0834 46.8978Z" fill="white"/>
<path d="M112.283 50.7132C111.496 50.7132 110.714 50.5487 110.039 50.2577C108.128 49.4328 106.756 47.746 105.774 46.3691C104.632 44.7684 103.625 43.0566 102.779 41.2811C102.641 40.9909 102.764 40.643 103.053 40.5048C103.342 40.3653 103.689 40.4889 103.828 40.7795C104.644 42.4939 105.617 44.1467 106.719 45.6915C107.613 46.9456 108.851 48.477 110.499 49.1883C111.858 49.7734 113.856 49.7139 114.88 48.4473C115.082 48.1972 115.448 48.1597 115.697 48.3608C115.946 48.5631 115.984 48.9299 115.782 49.1796C114.91 50.2603 113.589 50.7132 112.283 50.7132Z" fill="white"/>
<path d="M60.7338 16.4082C60.6973 16.4082 60.6604 16.4048 60.623 16.3975C58.4121 15.9695 56.1259 15.5265 54.0017 14.5655C52.2941 13.794 50.0071 12.3487 48.8058 9.8486C47.6573 7.45871 47.9296 4.64731 49.4835 2.85241C49.694 2.60959 50.0607 2.58247 50.303 2.79429C50.5456 3.00483 50.5714 3.3725 50.361 3.61532C49.1258 5.04169 48.917 7.39757 49.852 9.34359C50.671 11.0476 52.3142 12.5252 54.4793 13.5043C56.4798 14.4084 58.6981 14.8381 60.8438 15.2544C61.1586 15.3151 61.3643 15.6203 61.3038 15.9359C61.2497 16.2149 61.0066 16.4082 60.7338 16.4082Z" fill="white"/>
<path d="M126.371 237.82C119.835 237.82 113.326 237.047 106.938 235.509C106.626 235.434 106.434 235.119 106.509 234.807C106.584 234.494 106.899 234.303 107.21 234.376C115.915 236.474 124.851 237.129 133.768 236.321C134.09 236.291 134.37 236.529 134.399 236.849C134.428 237.17 134.192 237.452 133.872 237.482C131.372 237.708 128.869 237.82 126.371 237.82Z" fill="white"/>
<path d="M188.411 263.793C188.157 263.793 187.924 263.625 187.852 263.369C187.765 263.059 187.945 262.738 188.253 262.65C191.463 261.744 194.303 259.59 196.046 256.74C196.214 256.466 196.571 256.381 196.844 256.548C197.118 256.716 197.204 257.075 197.036 257.348C195.142 260.445 192.056 262.786 188.568 263.772C188.516 263.786 188.463 263.793 188.411 263.793Z" fill="white"/>
<path d="M204.618 250.017C204.491 250.017 204.363 249.976 204.256 249.89C204.005 249.69 203.964 249.323 204.165 249.072C206.142 246.588 207.603 243.649 208.389 240.572C208.469 240.26 208.786 240.073 209.096 240.152C209.407 240.232 209.594 240.549 209.515 240.86C208.688 244.096 207.152 247.187 205.073 249.798C204.958 249.942 204.789 250.017 204.618 250.017Z" fill="white"/>
<path d="M193.677 253.876C193.552 253.876 193.426 253.836 193.319 253.752C193.067 253.554 193.022 253.188 193.22 252.935L198.816 245.781C199.014 245.528 199.379 245.484 199.632 245.682C199.884 245.881 199.929 246.247 199.731 246.5L194.134 253.653C194.02 253.8 193.849 253.876 193.677 253.876Z" fill="white"/>
<path d="M195.675 108.541C195.547 108.541 195.417 108.498 195.31 108.411C192.778 106.356 189.591 105.134 186.337 104.971C186.016 104.954 185.769 104.681 185.786 104.36C185.802 104.038 186.094 103.786 186.395 103.807C189.893 103.983 193.319 105.296 196.041 107.506C196.29 107.708 196.329 108.075 196.127 108.325C196.012 108.467 195.844 108.541 195.675 108.541Z" fill="white"/>
<path d="M209.675 124.792C209.297 124.792 208.868 124.535 208.724 123.805C208.028 120.277 205.952 117.06 203.028 114.979C202.767 114.792 202.705 114.429 202.891 114.167C203.077 113.905 203.439 113.842 203.701 114.029C206.797 116.233 209.014 119.615 209.813 123.335C210.149 123.422 210.37 123.781 210.372 124.103C210.375 124.469 210.112 124.757 209.747 124.788C209.723 124.791 209.699 124.792 209.675 124.792Z" fill="white"/>
<path d="M199.424 119.051C199.255 119.051 199.087 118.977 198.972 118.835C197.069 116.472 194.627 114.513 191.91 113.169C191.622 113.027 191.504 112.678 191.646 112.389C191.788 112.102 192.136 111.983 192.423 112.125C195.291 113.542 197.867 115.609 199.876 118.103C200.077 118.353 200.038 118.72 199.789 118.922C199.682 119.009 199.553 119.051 199.424 119.051Z" fill="white"/>
<path d="M10.5929 235.888C10.4748 235.888 10.3562 235.853 10.2532 235.778C8.03702 234.171 6.5579 231.583 6.29635 228.853C6.26585 228.533 6.49948 228.249 6.81902 228.218C7.145 228.179 7.42202 228.422 7.45294 228.742C7.68272 231.143 8.98404 233.421 10.9339 234.834C11.1942 235.023 11.2521 235.387 11.064 235.647C10.9502 235.805 10.7728 235.888 10.5929 235.888Z" fill="white"/>
<path d="M21.4352 240.691C21.3433 240.691 21.2501 240.669 21.1634 240.623C18.8759 239.405 16.9012 237.496 15.6033 235.249C15.4426 234.97 15.5371 234.614 15.815 234.453C16.0929 234.291 16.448 234.387 16.6082 234.665C17.7988 236.727 19.6099 238.478 21.7084 239.595C21.9918 239.746 22.0992 240.098 21.9489 240.382C21.8445 240.579 21.6435 240.691 21.4352 240.691Z" fill="white"/>
<path d="M20.8266 247.152C20.7519 247.152 20.6759 247.138 20.6024 247.106C17.6725 245.876 15.0544 243.927 13.0311 241.471C12.8271 241.223 12.8619 240.856 13.1092 240.651C13.357 240.448 13.723 240.483 13.927 240.73C15.8309 243.041 18.2944 244.874 21.0512 246.033C21.3472 246.157 21.4867 246.498 21.3626 246.795C21.269 247.018 21.0538 247.152 20.8266 247.152Z" fill="white"/>
<path d="M103.873 66.3998C103.942 66.3541 104.007 66.3012 104.068 66.2405C104.564 65.7475 104.567 64.945 104.075 64.4486C103.915 64.2871 100.105 60.4993 95.3257 61.0241C92.3159 61.3548 89.6793 63.2844 87.4897 66.7618C87.117 67.3534 87.2935 68.1361 87.884 68.5098C88.4746 68.8835 89.2554 68.7057 89.6277 68.1146C91.3856 65.3239 93.3947 63.786 95.601 63.5436C99.1833 63.1501 102.25 66.2026 102.281 66.2336C102.712 66.6693 103.381 66.7252 103.873 66.3998Z" fill="#201600"/>
<path d="M75.1709 70.6797C75.2396 70.634 75.3053 70.5811 75.3663 70.5204C75.8619 70.0274 75.8649 69.2249 75.3732 68.7285C75.2134 68.567 71.4034 64.7792 66.6237 65.304C63.6139 65.6347 60.9773 67.5643 58.7878 71.0418C58.415 71.6333 58.5915 72.416 59.1821 72.7897C59.7726 73.1634 60.5534 72.9856 60.9258 72.3945C62.6837 69.6038 64.6928 68.0659 66.899 67.8235C70.4813 67.43 73.5483 70.4825 73.5788 70.5135C74.0096 70.9492 74.6783 71.0052 75.1709 70.6797Z" fill="#201600"/>
<path d="M105.108 58.4735C105.387 58.4163 105.654 58.2867 105.881 58.0831C106.567 57.4687 106.631 56.4173 106.022 55.7272C105.776 55.449 99.8723 48.9312 89.7403 51.1872C88.8392 51.387 88.2702 52.2807 88.4694 53.184C88.6683 54.0873 89.5616 54.659 90.4614 54.4579C98.6362 52.6695 103.329 57.736 103.525 57.953C103.937 58.4111 104.545 58.5894 105.108 58.4735Z" fill="#F0A050"/>
<path d="M72.9152 57.4291C73.0948 57.2083 73.2206 56.9383 73.2683 56.6369C73.4122 55.7264 72.7989 54.8709 71.8914 54.7224C71.5254 54.6625 62.8409 53.3533 56.4128 61.5218C55.8403 62.2477 55.9635 63.3008 56.6872 63.8747C57.4109 64.4486 58.4636 64.3254 59.0339 63.5995C64.2405 57.0335 71.0715 57.9858 71.3601 58.0301C71.9682 58.1231 72.5519 57.876 72.9152 57.4291Z" fill="#F0A050"/>
<path d="M84.7969 81.6062C85.7963 80.9457 86.7386 80.2001 87.6156 79.3756C87.921 79.0884 87.9364 78.6071 87.6495 78.301C87.3626 77.9944 86.8803 77.9794 86.5771 78.2665C85.1426 79.6154 83.5179 80.7369 81.7484 81.6002C81.3013 81.818 80.9753 81.8339 80.8997 81.7943C80.8826 81.7513 80.8869 81.5898 80.9225 81.3229C81.2326 78.9803 81.3881 77.5691 81.5388 76.2043C81.6883 74.8485 81.8429 73.4467 82.1504 71.1231C82.2054 70.7068 81.9133 70.3245 81.4985 70.2693C81.0827 70.2138 80.7022 70.5061 80.6468 70.9229C80.3371 73.2629 80.1817 74.6733 80.0313 76.0372C79.8819 77.3938 79.7273 78.7969 79.4193 81.1223C79.3704 81.4899 79.2883 82.106 79.6478 82.6455C80.1658 83.4235 81.2253 83.547 82.4128 82.9675C83.2379 82.5654 84.0341 82.1103 84.7969 81.6062Z" fill="#EF9B6C"/>
<path d="M81.5049 82.5194C81.7415 82.398 81.8455 82.1112 81.7368 81.8641C81.3735 81.0362 81.2558 80.0382 81.3868 78.8973C81.507 77.8476 81.8201 76.7997 82.1229 75.7858C82.2028 75.518 82.0512 75.2351 81.7836 75.1546C81.5165 75.075 81.2348 75.2265 81.154 75.4948C80.8388 76.5509 80.5124 77.6423 80.3822 78.781C80.2306 80.1028 80.3749 81.2777 80.8117 82.2722C80.9242 82.5284 81.2227 82.6446 81.4783 82.5318C81.4869 82.5284 81.4959 82.5241 81.5049 82.5194Z" fill="white"/>
<path d="M90.823 97.3608C90.4489 97.3608 90.1036 97.1176 89.9893 96.7404C89.8502 96.2789 90.1109 95.7915 90.5709 95.6516C92.0539 95.2008 96.0863 93.5614 96.9242 91.4156C97.1832 90.7521 97.1042 90.08 96.6833 89.3602C96.4398 88.9439 96.5789 88.4092 96.9942 88.165C97.4087 87.9205 97.9429 88.06 98.1865 88.4767C98.8762 89.6556 99.0008 90.8925 98.5464 92.0541C97.2493 95.3705 91.7034 97.1331 91.0751 97.3229C90.9913 97.3488 90.9063 97.3608 90.823 97.3608Z" fill="#D37967"/>
<path d="M210.661 187.802C219.52 190.425 229.101 190.552 238.025 188.165C237.18 188.392 235.799 185.533 235.427 181.591C235.232 179.52 235.312 177.152 235.898 174.777C236.737 171.36 235.015 171.44 231.138 169.708C225.295 167.095 218.467 166.772 212.404 168.817C213.51 172.344 213.782 176.115 213.256 179.772C212.857 182.572 211.986 185.303 210.661 187.802Z" fill="#FFBC91"/>
<path d="M213.256 179.772C215.092 181.504 217.411 182.705 219.848 183.363C222.58 184.105 225.459 184.195 228.271 183.869C229.627 183.711 230.977 183.441 232.281 183.022C233.393 182.662 234.455 182.193 235.427 181.591C235.232 179.521 235.312 177.152 235.898 174.778C236.737 171.36 235.015 171.441 231.138 169.709C225.295 167.095 218.467 166.772 212.404 168.818C213.51 172.344 213.782 176.115 213.256 179.772Z" fill="#EF9B6C"/>
<path d="M245.463 132.665C247.293 135.133 248.332 138.035 249.06 140.965C251.531 150.91 250.429 162.016 244.213 170.807C241.703 174.356 238.335 177.513 234.181 179.368C230.027 181.222 225.036 181.654 220.93 179.983C217.251 178.485 214.566 175.453 212.962 172.088C211.358 168.722 210.731 165.017 210.29 161.336C209.453 154.352 209.295 146.982 212.531 140.463C213.981 137.542 216.069 134.895 218.416 132.485C220.022 130.837 221.802 129.259 223.979 128.316C225.334 127.728 226.801 127.406 228.267 127.173C234.821 126.132 241.691 127.575 245.463 132.665Z" fill="#FFBC91"/>
<path d="M272.418 221.77C273.458 224.005 274.444 226.291 274.917 228.711C275.39 231.131 275.318 233.719 274.301 235.964C272.745 239.396 269.109 241.589 265.379 242.065C261.648 242.542 257.857 241.499 254.48 239.841C253.848 239.53 253.205 239.18 252.786 238.613C252.296 237.951 252.182 237.088 252.124 236.266C251.901 233.071 252.299 229.834 253.289 226.788C253.812 225.18 254.521 223.591 255.688 222.369C256.629 221.385 257.822 220.686 259.023 220.045C261.777 218.573 264.788 217.09 267.819 216.294C270.593 215.564 271.462 219.718 272.418 221.77Z" fill="#EFA075"/>
<path d="M187.029 261.533C187.063 263.082 187.301 264.619 187.539 266.149C187.623 266.683 187.713 267.236 188.026 267.673C188.329 268.101 188.806 268.368 189.271 268.614C201.929 275.309 216.414 276.93 230.85 277.454C233.47 277.55 236.09 277.609 238.694 277.656C239.465 277.672 240.233 277.684 240.998 277.697C247.683 277.802 254.786 277.793 260.468 274.257C260.735 274.089 261.013 273.894 261.112 273.596C261.199 273.332 261.125 273.044 261.054 272.777C258.217 262.532 255.117 250.418 254.015 246.215C251.904 238.104 249.78 229.931 249.222 221.565C256.576 221.758 263.974 220.209 270.631 217.074C265.284 202.652 256.98 188.395 235.722 183.628C235.722 183.628 235.637 184.267 234.91 184.46C231.34 185.394 227.584 185.586 223.936 185.059C222.357 184.832 220.799 184.472 219.285 183.975C218.17 183.612 217.006 182.87 215.808 183.053C213.399 183.426 210.578 185.981 208.788 187.514C204.515 191.174 201.171 195.87 198.749 200.936C195.204 208.358 193.522 216.525 192.389 224.685C192.333 225.098 192.277 225.511 192.222 225.924C191.544 231.027 191.039 236.161 190.351 241.264C189.887 244.728 189.336 248.177 188.587 251.595C187.865 254.878 186.96 258.172 187.029 261.533Z" fill="#F0A050"/>
<path d="M195.714 188.864C195.758 190.829 195.884 192.781 196.089 194.724C196.773 201.379 198.321 207.907 200.387 214.314C200.817 215.655 201.269 216.99 201.743 218.318C204.118 224.989 206.979 231.526 209.924 237.933C211.642 241.667 213.411 245.414 215.894 248.685C216.266 249.176 216.656 249.657 217.068 250.122C218.09 251.292 219.232 252.357 220.52 253.223C225.162 256.346 231.15 256.591 236.706 255.793C236.897 255.765 237.093 255.738 237.285 255.706C242.92 254.825 248.794 252.699 252.631 248.676C253.693 247.568 254.597 246.314 255.3 244.901C258.093 239.28 256.997 232.507 254.953 226.572C254.898 226.41 254.842 226.249 254.783 226.09C249.457 211.005 238.625 198.402 226.465 188.019C222.669 184.775 218.374 181.696 214.878 178.018C214.126 177.229 213.414 176.413 212.751 175.562C211.001 173.315 210.788 172.157 207.676 173.383C205.239 174.339 203.18 176.18 201.238 177.884C199.176 179.694 197.024 181.637 196.179 184.254C195.702 185.729 195.68 187.312 195.714 188.864Z" fill="#FF7F1E"/>
<path d="M195.714 188.864C195.758 190.829 195.884 192.781 196.089 194.724C197.362 194.516 198.61 194.147 199.817 193.684C202.397 192.697 204.796 191.253 206.911 189.478C210.513 186.452 213.309 182.46 214.879 178.018C214.126 177.229 213.414 176.413 212.751 175.562C211.002 173.315 210.788 172.157 207.676 173.383C205.239 174.339 203.18 176.18 201.239 177.884C199.176 179.694 197.024 181.637 196.179 184.254C195.702 185.729 195.68 187.312 195.714 188.864Z" fill="#D36216"/>
<path d="M230.85 277.454C233.47 277.55 236.09 277.609 238.694 277.656C238.79 277.513 238.886 277.37 238.985 277.231C242.933 271.6 249.764 268.313 253.037 262.26C254.229 260.053 254.932 257.476 256.415 255.425C255.997 253.829 255.582 252.231 255.167 250.635C254.972 249.881 254.774 249.127 254.579 248.372C253.349 249.273 252.232 250.356 251.247 251.514C248.986 254.171 247.284 257.25 245.28 260.106C241.484 265.516 236.644 270.092 232.42 275.17C231.829 275.88 231.241 276.619 230.85 277.454Z" fill="#B77C3A"/>
<path d="M250.687 231.114C248.175 234.566 245.003 237.602 241.197 239.527C240.623 239.817 240.009 240.087 239.366 240.067C238.724 240.047 238.05 239.653 237.907 239.025C237.8 238.552 238.005 238.07 238.218 237.635C239.641 234.734 241.664 232.179 243.671 229.649C246.299 226.337 248.926 223.024 251.553 219.711C252.095 219.029 252.651 218.333 253.388 217.872C254.126 217.411 255.093 217.221 255.87 217.613C259.097 219.24 252.005 229.303 250.687 231.114Z" fill="#E29246"/>
<path d="M233.956 224.705C233.592 224.864 233.159 225.014 232.815 224.815C232.175 224.446 232.563 223.465 233.012 222.878C234.683 220.693 236.354 218.507 238.024 216.321C239.873 213.903 241.74 211.466 244.043 209.477C244.852 208.779 245.745 208.123 246.786 207.884C248.818 207.416 250.873 209.186 249.864 211.239C248.963 213.072 246.853 215.066 245.456 216.558C242.222 220.012 238.291 222.813 233.956 224.705Z" fill="#E29246"/>
<path d="M226.85 215.543C226.065 215.994 224.888 216.33 224.406 215.562C224.053 214.999 224.392 214.27 224.741 213.704C227.26 209.606 230.351 205.862 233.895 202.614C234.618 201.952 235.376 201.299 236.279 200.919C237.751 200.299 240.627 200.806 239.972 202.94C239.494 204.499 237.437 206.442 236.375 207.672C233.67 210.807 230.439 213.485 226.85 215.543Z" fill="#E29246"/>
<path d="M225.531 297.736C226.992 299.741 230.017 300.76 232.052 299.335C232.504 299.018 232.894 298.587 233.086 298.065C233.275 297.556 233.266 296.994 233.232 296.451C233.003 292.698 231.77 288.979 232.225 285.245C232.773 280.747 235.703 276.895 238.973 273.763C242.242 270.631 245.964 267.952 248.841 264.454C249.813 263.271 250.683 261.974 251.368 260.59C251.866 259.581 252.266 258.528 252.538 257.442C252.86 256.157 253.783 251.057 251.984 250.666C251.442 250.548 250.885 250.728 250.374 250.936C247.766 252.004 245.515 253.925 244.048 256.337C242.868 258.277 242.202 260.49 241.063 262.455C240.118 264.085 238.886 265.488 237.548 266.807C235.727 268.607 233.705 270.253 231.947 272.112C227.243 277.082 224.367 283.752 223.979 290.594C223.84 293.077 224.069 295.728 225.531 297.736Z" fill="#FF7F1E"/>
<path d="M211.156 228.903C211.831 235.192 213.386 241.382 215.758 247.239C216.151 248.208 216.578 249.182 217.068 250.123C218.303 252.525 219.91 254.713 222.223 256.03C224.431 257.287 227.076 257.604 229.605 257.38C232.027 257.166 234.374 256.489 236.706 255.794C236.811 255.763 236.916 255.732 237.022 255.701C241.041 254.499 245.094 253.286 248.773 251.268C250.126 250.526 251.433 249.66 252.631 248.676C253.693 247.568 254.597 246.314 255.3 244.902C258.093 239.28 256.997 232.507 254.953 226.572C254.898 226.411 254.842 226.249 254.783 226.091C254.737 226.072 254.69 226.057 254.644 226.041C252.284 225.349 254.204 229.868 254.374 230.691C254.845 232.945 255.034 235.322 254.278 237.539C253.483 239.882 251.702 241.807 249.596 243.104C247.491 244.399 245.076 245.109 242.645 245.541C239.427 246.112 236.13 246.221 232.884 245.854C231.25 245.675 229.615 245.367 228.094 244.74C226.496 244.082 225.06 243.086 223.713 242.002C221.084 239.895 218.703 237.384 217.223 234.351C216.052 231.958 215.393 229.173 213.395 227.41C212.956 227.022 212.349 226.684 211.81 226.913C211.119 227.208 211.076 228.158 211.156 228.903Z" fill="#D36216"/>
<path d="M190.351 241.264C191.485 241.037 192.646 240.668 193.485 241.36C193.857 241.664 194.064 242.123 194.259 242.564C195.559 245.507 196.798 248.477 197.978 251.47C200.251 257.231 202.499 263.371 207.277 267.301C211.807 271.026 218.062 272.168 223.868 271.376C229.129 270.659 233.804 268.427 238.495 266.071C241.812 264.408 246.884 263.722 248.897 260.323C249.6 259.14 249.668 257.33 248.482 256.638C247.94 256.322 247.28 256.325 246.655 256.359C242.273 256.598 238.028 258.041 233.65 258.342C227.184 258.79 220.579 256.617 215.634 252.42C207.624 245.625 204.561 234.556 197.448 226.824C196.702 226.014 195.884 225.222 194.869 224.794C194.088 224.465 193.166 224.387 192.389 224.685C192.333 225.098 192.277 225.511 192.222 225.924C191.543 231.026 191.039 236.16 190.351 241.264Z" fill="#B77C3A"/>
<path d="M249.535 159.119C247.982 159.222 246.437 158.782 245.013 158.15C240.188 156.006 236.477 151.497 235.292 146.341C235.268 147.726 233.898 148.801 232.522 148.922C231.146 149.044 229.809 148.439 228.629 147.718C225.67 145.909 223.229 143.258 221.666 140.157C221.651 141.613 220.414 142.897 218.985 143.162C217.556 143.426 216.049 142.778 215.081 141.692C214.625 141.181 214.266 140.559 214.177 139.879C214.041 138.843 214.54 137.826 215.159 136.987C218.098 132.998 223.747 131.812 228.575 132.887C233.404 133.963 237.595 136.883 241.552 139.858C244.422 142.016 247.27 144.262 249.547 147.041C251.31 149.191 252.727 151.695 253.37 154.418C254.04 157.257 252.527 158.92 249.535 159.119Z" fill="#EF9B6C"/>
<path d="M237.548 266.807C241.462 266.406 245.277 265.035 248.541 262.831C249.541 262.157 250.485 261.406 251.368 260.59C251.866 259.581 252.266 258.528 252.538 257.442C252.86 256.157 253.783 251.057 251.984 250.666C251.442 250.548 250.885 250.728 250.374 250.936C247.766 252.004 245.515 253.925 244.048 256.337C242.868 258.277 242.202 260.49 241.063 262.455C240.118 264.085 238.886 265.488 237.548 266.807Z" fill="#D36216"/>
<path d="M200.387 214.314C200.817 215.655 201.269 216.99 201.743 218.318C202.858 219.489 204.044 220.591 205.289 221.615C206.304 222.447 207.453 223.263 208.763 223.31C210.999 223.384 212.643 221.255 213.646 219.25C216.071 214.389 217.127 208.857 216.699 203.444C216.625 202.469 216.724 200.715 215.712 201.783C214.969 202.565 214.628 204.85 214.182 205.89C213.064 208.485 211.695 210.971 210.104 213.305C209.19 214.64 208.048 216.024 206.456 216.294C205.599 216.44 204.722 216.235 203.899 215.956C202.666 215.543 201.505 214.969 200.387 214.314Z" fill="#D36216"/>
<path d="M238.895 195.61C232.219 191.201 225.13 187.312 219.227 181.906C218.597 181.329 217.902 180.708 217.144 180.345C216.488 180.031 215.814 180.769 216.211 181.379C218.119 184.311 220.844 185.254 223.312 187.874C219.917 185.143 217.293 183.298 213.649 180.911C212.885 180.41 212.034 181.441 212.684 182.084C212.738 182.138 212.793 182.19 212.848 182.239C215.656 184.748 218.812 187.302 221.62 189.812C219.348 187.877 212.875 183.091 212.108 184.103C211.182 185.844 216.782 189.428 219.945 191.339C217.724 190.023 214.006 187.301 213.158 187.909C212.37 189.245 215.307 191.226 216.019 191.823C220.047 195.195 224.188 198.633 229.134 200.393C231.15 201.11 233.278 201.539 235.191 202.5C237.293 203.557 239.036 205.21 240.618 206.954C245.324 212.14 248.861 218.296 251.71 224.698C253.275 228.214 254.656 231.843 256.777 235.053C258.897 238.262 261.889 241.079 265.594 242.089C269.3 243.1 273.743 241.912 275.787 238.653C278.175 234.844 276.682 229.784 274.375 225.926C272.868 223.406 271.024 220.775 268.735 218.905C267.038 217.517 265.084 216.602 263.428 215.123C258.443 210.668 253.428 206.27 248.121 202.2C245.121 199.899 242.05 197.693 238.895 195.61Z" fill="#FFBC91"/>
<path d="M256.492 241.581C256.492 241.581 258.071 247.992 251.407 255.037C244.743 262.082 223.546 269.735 214.878 265.483C206.211 261.232 191.429 232.567 191.429 232.567C191.429 232.567 205.206 222.01 212.598 223.104C212.598 223.104 222.933 250.381 225.114 251.394C230.643 253.96 253.7 249.502 256.492 241.581Z" fill="#FFBC91"/>
<path d="M200.093 191.815C203.368 196.168 210.094 204.376 211.354 209.681C212.566 214.779 213.331 219.984 213.639 225.216C206.705 229.17 197.103 233.851 189.41 235.968C188.683 229.894 187.45 227.29 185.454 223.709C184.086 221.252 182.733 218.767 181.829 216.103C180.7 212.773 180.299 209.237 180.182 205.722C180.046 201.647 180.317 197.426 182.129 193.775C184.065 189.873 186.542 186.176 191.041 186.489C195.801 186.822 197.35 188.171 200.093 191.815Z" fill="#F0A050"/>
<path d="M246.906 164.121C246.974 164.217 247.088 164.264 247.197 164.307C248.404 164.789 249.72 165.164 250.996 164.906C252.309 164.639 253.408 163.652 253.938 162.423C254.151 161.93 254.272 161.399 254.278 160.859C254.297 159.151 252.365 155.718 250.389 155.622C249.116 155.56 248.299 157.183 247.766 159.031C247.258 160.775 247.008 162.721 246.856 163.643C246.828 163.807 246.81 163.988 246.906 164.121Z" fill="#FFBC91"/>
<path d="M247.766 159.03C248.048 159.111 248.358 158.968 248.64 158.853C249.996 158.301 251.665 158.512 252.767 159.477C253.585 160.197 254.034 161.333 253.938 162.423C254.151 161.929 254.272 161.399 254.278 160.859C254.297 159.151 252.365 155.718 250.389 155.622C249.116 155.56 248.299 157.183 247.766 159.03Z" fill="#EF9B6C"/>
<path d="M204.752 147.59C203.661 149.12 203.754 151.412 205.02 152.801C205.897 153.764 207.181 154.237 208.44 154.565C208.554 154.594 208.674 154.622 208.786 154.587C208.941 154.536 209.032 154.377 209.106 154.23C209.971 152.515 213.042 147.031 210.974 145.664C209.324 144.573 205.743 146.2 204.752 147.59Z" fill="#FFBC91"/>
<path d="M228.405 118.187C228.737 118.171 229.085 118.182 229.373 118.347C229.876 118.635 230.033 119.322 229.887 119.884C229.741 120.446 229.361 120.914 228.992 121.362C230.849 120.636 232.909 120.711 234.9 120.809C238.408 120.982 241.966 121.203 245.287 122.346C248.609 123.489 251.72 125.683 253.212 128.871C253.597 129.692 253.869 130.647 253.555 131.498C253.241 132.349 252.122 132.922 251.384 132.398C256.518 137.17 258.951 144.686 257.59 151.57C257.266 153.208 256.726 154.84 255.714 156.165C254.701 157.491 253.158 158.48 251.493 158.528C249.13 158.595 247.138 156.86 245.467 155.183C240.567 150.265 236.109 144.906 232.164 139.19C232.901 140.68 233.38 142.297 233.575 143.949C233.61 144.242 233.633 144.552 233.513 144.822C233.158 145.621 231.984 145.455 231.178 145.117C226.919 143.332 223.121 140.453 220.249 136.83C220.153 138.168 219.843 139.597 218.843 140.488C217.843 141.379 215.981 141.346 215.394 140.141C214.531 144.126 212.867 147.935 210.531 151.273C210.291 151.616 210.017 151.975 209.619 152.102C208.631 152.42 210.793 145.313 209.756 145.311C209.756 145.311 208.576 138.807 211.143 133.686C212.293 131.391 213.627 129.046 215.797 127.679C215.022 127.686 214.429 128.327 213.809 128.791C213.189 129.256 212.195 129.519 211.724 128.903C211.334 128.395 211.598 127.658 211.933 127.112C213.897 123.918 216.637 123.774 219.849 122.937C221.346 122.547 222.152 121.19 223.317 120.262C224.775 119.099 226.522 118.274 228.405 118.187Z" fill="#39221E"/>
<path d="M178.841 171.611C182.647 185.738 193.141 189.103 202.257 186.889C209.091 185.229 213.132 175.193 214.563 169.218C217.04 158.872 214.881 141.328 211.748 146.747C209.339 150.922 207.379 155.361 205.917 159.958C201.613 159.079 196.919 158.205 192.624 158.555C188.434 158.879 187.532 159.936 187.035 159.483C186.926 159.387 185.728 152.186 183.3 147.796C183.13 147.486 181.656 144.708 180.687 144.99C179.551 145.323 179.201 147.194 179.136 147.871C178.68 152.484 178.417 155.169 178.148 159.797C178.027 161.867 178.349 169.789 178.841 171.611Z" fill="#FF7F1E"/>
<path d="M208.155 159.947C209.063 157.857 209.994 155.778 210.948 153.709C211.443 152.638 211.953 151.554 212.719 150.657C212.832 150.524 212.983 150.383 213.155 150.414C213.271 150.435 213.358 150.531 213.428 150.626C213.823 151.169 213.933 151.864 214.016 152.531C214.377 155.416 214.459 158.333 214.266 161.234C214.206 162.142 214.266 162.405 213.422 161.873C212.903 161.545 212.362 161.254 211.803 161.002C211.481 160.856 208.296 159.623 208.155 159.947Z" fill="#D36216"/>
<path d="M185.809 159.919C185.05 157.771 184.239 155.655 183.432 153.525C183.013 152.421 182.58 151.304 181.879 150.355C181.775 150.215 181.635 150.064 181.461 150.083C181.344 150.096 181.25 150.185 181.174 150.275C180.742 150.79 180.584 151.475 180.454 152.135C179.892 154.987 179.606 157.891 179.595 160.798C179.592 161.708 179.513 161.966 180.393 161.494C180.934 161.204 181.494 160.952 182.069 160.739C182.4 160.617 185.691 159.586 185.809 159.919Z" fill="#D36216"/>
<path d="M205.953 170.36C204.855 169.901 204.336 168.637 204.794 167.536C205.252 166.436 206.513 165.915 207.611 166.374C208.709 166.833 209.228 168.097 208.77 169.198C208.312 170.299 207.051 170.819 205.953 170.36Z" fill="#201600"/>
<path d="M187.374 170.764C186.276 170.306 185.757 169.041 186.215 167.94C186.673 166.84 187.934 166.319 189.032 166.778C190.13 167.237 190.649 168.502 190.191 169.602C189.734 170.703 188.472 171.223 187.374 170.764Z" fill="#201600"/>
<path d="M204.303 173.417C204.313 173.417 204.322 173.416 204.331 173.414L211.056 172.169C211.14 172.154 211.196 172.073 211.18 171.988C211.164 171.904 211.084 171.848 211 171.864L204.275 173.109C204.191 173.125 204.135 173.206 204.151 173.29C204.165 173.365 204.23 173.417 204.303 173.417Z" fill="#201600"/>
<path d="M211.028 175.6C211.108 175.6 211.176 175.538 211.182 175.456C211.189 175.371 211.125 175.296 211.039 175.29L204.163 174.777C204.075 174.77 204.004 174.835 203.997 174.92C203.991 175.006 204.055 175.08 204.14 175.087L211.016 175.599C211.02 175.6 211.024 175.6 211.028 175.6Z" fill="#201600"/>
<path d="M209.877 178.761C209.938 178.761 209.996 178.725 210.02 178.664C210.052 178.584 210.014 178.494 209.935 178.462L204.058 176.094C203.979 176.062 203.889 176.1 203.857 176.18C203.825 176.259 203.863 176.35 203.943 176.382L209.819 178.75C209.838 178.758 209.858 178.761 209.877 178.761Z" fill="#201600"/>
<path d="M189.73 173.55C189.72 173.55 189.711 173.549 189.702 173.547L182.977 172.302C182.893 172.287 182.837 172.206 182.853 172.121C182.869 172.037 182.949 171.981 183.033 171.997L189.758 173.242C189.842 173.258 189.898 173.338 189.882 173.423C189.868 173.498 189.803 173.55 189.73 173.55Z" fill="#201600"/>
<path d="M183.005 175.733C182.924 175.733 182.856 175.671 182.85 175.589C182.844 175.504 182.908 175.429 182.993 175.423L189.869 174.91C189.957 174.903 190.029 174.968 190.035 175.053C190.042 175.139 189.978 175.213 189.892 175.22L183.016 175.732C183.012 175.732 183.008 175.733 183.005 175.733Z" fill="#201600"/>
<path d="M184.156 178.894C184.095 178.894 184.037 178.858 184.013 178.797C183.981 178.717 184.019 178.627 184.099 178.595L189.975 176.226C190.054 176.195 190.144 176.233 190.176 176.313C190.208 176.392 190.17 176.483 190.09 176.515L184.214 178.883C184.195 178.891 184.175 178.894 184.156 178.894Z" fill="#201600"/>
<path d="M205.047 167.303C205.047 167.681 205.353 167.988 205.73 167.988C206.108 167.988 206.413 167.681 206.413 167.303C206.413 166.925 206.107 166.618 205.73 166.618C205.353 166.618 205.047 166.925 205.047 167.303Z" fill="white"/>
<path d="M186.411 167.688C186.411 168.066 186.717 168.373 187.094 168.373C187.472 168.373 187.777 168.066 187.777 167.688C187.777 167.309 187.472 167.003 187.094 167.003C186.717 167.003 186.411 167.309 186.411 167.688Z" fill="white"/>
<path d="M198.608 171.774C199.107 170.79 195.422 170.585 195.152 171.336C194.925 171.968 197.298 174.418 198.608 171.774Z" fill="#201600"/>
<path d="M198.966 175.374C200.257 175.374 201.635 174.725 201.714 174.687C201.791 174.651 201.824 174.558 201.787 174.481C201.751 174.403 201.659 174.37 201.581 174.407C201.556 174.419 199.039 175.604 197.774 174.761C197.25 174.413 197.006 173.746 197.05 172.78C197.054 172.694 196.988 172.621 196.902 172.617C196.818 172.613 196.745 172.679 196.741 172.765C196.691 173.848 196.981 174.607 197.603 175.02C197.993 175.279 198.473 175.374 198.966 175.374Z" fill="#201600"/>
<path d="M195.11 175.457C195.466 175.457 195.808 175.39 196.104 175.222C196.741 174.862 197.058 174.102 197.045 172.964C197.044 172.879 196.975 172.81 196.89 172.81C196.889 172.81 196.889 172.81 196.888 172.81C196.803 172.811 196.734 172.882 196.735 172.967C196.747 173.983 196.483 174.651 195.952 174.952C194.697 175.663 192.322 174.208 192.298 174.193C192.226 174.148 192.13 174.17 192.085 174.243C192.04 174.316 192.062 174.412 192.135 174.457C192.217 174.507 193.766 175.457 195.11 175.457Z" fill="#201600"/>
<path d="M202.79 165.03C203.791 163.749 204.232 161.536 204.908 159.757C203.932 159.564 202.951 159.375 201.966 159.207C199.431 166.22 201.749 166.374 202.79 165.03Z" fill="#FFB685"/>
<path d="M199.083 162.171C199.461 161.371 199.417 160.413 199.452 158.819C198.092 158.642 196.733 158.521 195.383 158.487C195.262 163.491 198.1 164.255 199.083 162.171Z" fill="#FFB685"/>
<path d="M189.171 159.108C189.363 160.006 189.526 160.892 189.964 161.818C190.656 163.287 192.416 164.877 193.036 163.37C193.4 162.492 192.984 159.837 192.624 158.555C191.46 158.645 190.305 158.822 189.171 159.108Z" fill="#FFB685"/>
<path d="M241.458 162.945C241.508 162.939 241.559 162.929 241.609 162.913C242.016 162.783 242.241 162.346 242.111 161.938C242.069 161.805 241.047 158.675 238.296 157.624C236.563 156.962 234.589 157.276 232.427 158.559C232.06 158.777 231.938 159.253 232.156 159.622C232.373 159.991 232.849 160.112 233.216 159.895C234.951 158.865 236.474 158.589 237.744 159.074C239.806 159.862 240.628 162.383 240.636 162.409C240.75 162.767 241.099 162.984 241.458 162.945Z" fill="#201600"/>
<path d="M224.54 158.192C224.59 158.187 224.641 158.176 224.691 158.16C225.098 158.03 225.323 157.593 225.194 157.185C225.152 157.052 224.129 153.922 221.378 152.871C219.645 152.209 217.671 152.523 215.509 153.806C215.142 154.024 215.02 154.5 215.238 154.869C215.456 155.238 215.931 155.36 216.298 155.142C218.033 154.112 219.556 153.836 220.826 154.321C222.888 155.109 223.71 157.63 223.718 157.656C223.832 158.014 224.181 158.232 224.54 158.192Z" fill="#201600"/>
<path d="M243.967 157.361C244.151 157.341 244.331 157.274 244.49 157.156C244.97 156.801 245.075 156.126 244.722 155.643C244.58 155.449 241.159 150.883 234.481 151.728C233.887 151.803 233.465 152.346 233.54 152.941C233.614 153.536 234.157 153.959 234.75 153.884C240.136 153.223 242.863 156.778 242.976 156.93C243.215 157.25 243.597 157.402 243.967 157.361Z" fill="#39221E"/>
<path d="M226.341 150.474C226.524 150.454 226.704 150.386 226.863 150.269C227.343 149.914 227.448 149.238 227.095 148.756C226.953 148.561 223.533 143.995 216.854 144.841C216.26 144.915 215.839 145.458 215.913 146.053C215.987 146.649 216.53 147.072 217.123 146.996C222.51 146.335 225.236 149.89 225.349 150.043C225.588 150.363 225.97 150.515 226.341 150.474Z" fill="#39221E"/>
<path d="M226.827 165.897C227.556 165.816 228.277 165.674 228.984 165.469C229.231 165.398 229.373 165.14 229.302 164.893C229.231 164.646 228.972 164.503 228.727 164.574C227.57 164.908 226.372 165.065 225.167 165.041C224.863 165.035 224.681 164.952 224.65 164.909C224.653 164.881 224.7 164.794 224.794 164.658C225.615 163.469 226.093 162.743 226.555 162.041C227.014 161.344 227.488 160.623 228.303 159.442C228.449 159.231 228.396 158.941 228.185 158.794C227.974 158.648 227.685 158.701 227.539 158.913C226.718 160.101 226.241 160.827 225.779 161.528C225.32 162.225 224.845 162.947 224.03 164.128C223.901 164.315 223.685 164.628 223.73 165.022C223.796 165.592 224.339 165.955 225.148 165.972C225.71 165.983 226.271 165.958 226.827 165.897Z" fill="#EF9B6C"/>
<path d="M224.915 175.168C227.356 175.485 229.442 175.216 229.613 175.193C229.91 175.153 230.119 174.878 230.079 174.58C230.038 174.281 229.763 174.072 229.467 174.112C229.389 174.123 221.699 175.108 218.933 170.935C218.767 170.683 218.429 170.615 218.179 170.782C217.929 170.949 217.861 171.287 218.027 171.538C219.608 173.924 222.443 174.846 224.915 175.168Z" fill="#D37967"/>
<path d="M251.557 126.68C251.623 126.68 251.69 126.658 251.747 126.614C251.882 126.508 251.906 126.313 251.8 126.178C251.619 125.945 247.235 120.498 235.135 120.498C235.056 120.498 234.978 120.498 234.898 120.498C234.727 120.499 234.589 120.639 234.59 120.81C234.591 120.981 234.73 121.119 234.9 121.119C234.901 121.119 234.901 121.119 234.902 121.119C246.895 121.047 251.269 126.505 251.312 126.56C251.373 126.639 251.465 126.68 251.557 126.68Z" fill="white"/>
<path d="M232.264 145.454C232.764 145.454 233.221 145.268 233.511 144.933C233.884 144.499 233.922 143.912 233.918 143.507C233.901 141.806 233.185 140.008 231.73 138.01C231.629 137.872 231.435 137.841 231.297 137.942C231.159 138.043 231.129 138.238 231.23 138.376C232.607 140.266 233.284 141.946 233.299 143.513C233.304 143.996 233.222 144.318 233.042 144.526C232.827 144.776 232.416 144.886 231.993 144.808C231.562 144.727 231.157 144.489 230.765 144.258C230.618 144.171 230.428 144.221 230.341 144.368C230.255 144.516 230.304 144.706 230.452 144.793C230.869 145.039 231.342 145.318 231.88 145.418C232.009 145.442 232.138 145.454 232.264 145.454Z" fill="white"/>
<path d="M217.359 141.196C217.693 141.196 218.039 141.116 218.361 140.952C218.901 140.678 219.37 140.192 219.755 139.507C220.658 137.903 220.747 135.864 219.987 134.187C219.916 134.03 219.733 133.96 219.577 134.032C219.421 134.103 219.352 134.287 219.423 134.443C220.102 135.944 220.023 137.767 219.216 139.202C218.892 139.778 218.51 140.181 218.081 140.398C217.593 140.647 217.016 140.631 216.644 140.359C216.506 140.259 216.312 140.289 216.212 140.428C216.111 140.566 216.141 140.761 216.28 140.861C216.585 141.084 216.964 141.196 217.359 141.196Z" fill="white"/>
<path d="M255.77 156.172C255.885 156.172 255.995 156.108 256.049 155.998C257.438 153.14 258.201 149.95 258.257 146.772C258.312 143.629 257.653 140.997 256.299 138.949C256.205 138.806 256.013 138.767 255.87 138.862C255.728 138.957 255.689 139.149 255.783 139.292C257.067 141.233 257.691 143.746 257.638 146.761C257.584 149.849 256.842 152.949 255.492 155.726C255.417 155.88 255.481 156.066 255.635 156.141C255.679 156.162 255.725 156.172 255.77 156.172Z" fill="white"/>
<path d="M238.358 177.153C238.421 177.153 238.484 177.134 238.538 177.095C243.465 173.555 247.126 168.142 248.58 162.243C248.621 162.077 248.52 161.909 248.354 161.868C248.189 161.826 248.02 161.928 247.979 162.095C246.559 167.852 242.987 173.136 238.177 176.59C238.039 176.69 238.006 176.884 238.106 177.023C238.167 177.108 238.262 177.153 238.358 177.153Z" fill="white"/>
<path d="M224.778 165.473C224.941 165.473 225.077 165.346 225.087 165.181C225.119 164.628 225.333 164.051 225.722 163.466C226.08 162.927 226.542 162.444 226.99 161.976C227.108 161.852 227.104 161.656 226.98 161.537C226.857 161.419 226.661 161.423 226.542 161.547C226.076 162.034 225.595 162.538 225.206 163.122C224.756 163.8 224.507 164.48 224.469 165.145C224.458 165.316 224.589 165.463 224.76 165.473C224.766 165.473 224.772 165.473 224.778 165.473Z" fill="white"/>
<path d="M230.254 190.622C230.358 190.622 230.46 190.569 230.518 190.473C230.607 190.326 230.561 190.135 230.415 190.046C227.288 188.134 224.341 185.898 221.656 183.4C221.5 183.255 221.345 183.11 221.19 182.964C220.149 181.985 219.073 180.972 217.79 180.267C217.2 179.942 216.462 179.867 216.145 180.428C216.061 180.577 216.113 180.766 216.261 180.851C216.411 180.935 216.599 180.883 216.683 180.734C216.782 180.561 217.179 180.639 217.492 180.811C218.706 181.479 219.753 182.464 220.766 183.416C220.922 183.563 221.078 183.71 221.234 183.855C223.95 186.381 226.93 188.642 230.092 190.576C230.143 190.607 230.199 190.622 230.254 190.622Z" fill="white"/>
<path d="M223.399 188.322C223.489 188.322 223.578 188.283 223.639 188.207C223.747 188.074 223.727 187.879 223.594 187.771C221.773 186.288 219.852 184.888 217.886 183.607C217.743 183.514 217.551 183.554 217.458 183.698C217.365 183.842 217.405 184.034 217.549 184.127C219.497 185.396 221.4 186.784 223.204 188.253C223.262 188.299 223.33 188.322 223.399 188.322Z" fill="white"/>
<path d="M245.769 213.828C245.823 213.828 245.877 213.814 245.926 213.785C246.074 213.698 246.122 213.508 246.036 213.36C244.894 211.424 243.361 209.761 241.879 208.153C239.738 205.831 237.311 203.198 234.214 201.749C234.059 201.677 233.875 201.744 233.802 201.899C233.73 202.054 233.797 202.239 233.952 202.312C236.939 203.709 239.322 206.294 241.424 208.574C242.885 210.159 244.395 211.797 245.503 213.676C245.56 213.774 245.663 213.828 245.769 213.828Z" fill="white"/>
<path d="M273.135 224.452C273.189 224.452 273.244 224.438 273.293 224.408C273.44 224.32 273.488 224.129 273.4 223.982C271.463 220.734 268.543 218.24 265.943 216.228C265.216 215.665 264.467 215.106 263.744 214.564C261.661 213.007 259.508 211.397 257.636 209.549C257.514 209.429 257.317 209.43 257.198 209.552C257.078 209.674 257.079 209.871 257.201 209.991C259.104 211.869 261.274 213.492 263.373 215.061C264.095 215.601 264.841 216.159 265.564 216.719C268.119 218.695 270.985 221.141 272.869 224.3C272.927 224.398 273.029 224.452 273.135 224.452Z" fill="white"/>
<path d="M263.646 203.057C263.701 203.057 263.756 203.042 263.806 203.013C263.952 202.924 264 202.733 263.911 202.586C259.958 195.997 253.948 190.586 246.99 187.351C246.835 187.279 246.651 187.346 246.579 187.502C246.507 187.657 246.574 187.842 246.729 187.914C253.577 191.098 259.49 196.423 263.381 202.907C263.439 203.003 263.541 203.057 263.646 203.057Z" fill="white"/>
<path d="M185.273 153.45C185.3 153.45 185.327 153.446 185.355 153.439C185.519 153.393 185.617 153.223 185.571 153.057C185.062 151.191 184.406 149.349 183.622 147.58C183.095 146.39 182.31 144.976 180.914 144.601C180.749 144.556 180.579 144.655 180.534 144.82C180.49 144.986 180.588 145.156 180.753 145.2C181.897 145.508 182.585 146.768 183.056 147.832C183.827 149.572 184.473 151.385 184.974 153.221C185.012 153.359 185.137 153.45 185.273 153.45Z" fill="white"/>
<path d="M206.479 158.246C206.609 158.246 206.73 158.163 206.773 158.033C207.932 154.513 209.52 151.139 211.492 148.005C211.583 147.86 211.54 147.668 211.395 147.577C211.25 147.486 211.059 147.529 210.968 147.674C208.969 150.851 207.359 154.271 206.185 157.838C206.132 158.001 206.22 158.177 206.382 158.23C206.414 158.241 206.447 158.246 206.479 158.246Z" fill="white"/>
<path d="M209.192 161.739C209.3 161.739 209.404 161.683 209.461 161.582C209.546 161.433 209.495 161.244 209.346 161.159C208.193 160.498 206.961 159.972 205.686 159.597C205.521 159.548 205.35 159.643 205.302 159.807C205.253 159.972 205.348 160.144 205.511 160.193C206.74 160.554 207.927 161.061 209.039 161.698C209.087 161.725 209.14 161.739 209.192 161.739Z" fill="white"/>
<path d="M213.321 208.171C213.432 208.171 213.539 208.112 213.594 208.008C214.966 205.449 215.839 202.568 216.118 199.677C216.135 199.506 216.01 199.354 215.84 199.338C215.667 199.32 215.518 199.446 215.502 199.616C215.23 202.427 214.382 205.226 213.049 207.713C212.968 207.865 213.024 208.053 213.175 208.134C213.222 208.159 213.272 208.171 213.321 208.171Z" fill="white"/>
<path d="M236.864 246.376C237.634 246.376 238.431 246.348 239.256 246.293C239.427 246.282 239.556 246.133 239.545 245.963C239.534 245.792 239.384 245.667 239.215 245.673C236.186 245.876 233.562 245.702 231.195 245.143C228.42 244.488 225.966 243.266 224.097 241.606C223.969 241.493 223.773 241.505 223.66 241.633C223.547 241.762 223.559 241.958 223.687 242.072C225.632 243.798 228.179 245.069 231.053 245.748C232.833 246.167 234.75 246.376 236.864 246.376Z" fill="white"/>
<path d="M207.606 202.793C207.663 202.793 207.722 202.777 207.774 202.743C207.917 202.65 207.958 202.458 207.865 202.314C205.335 198.396 202.555 194.582 199.601 190.977C199.492 190.845 199.297 190.826 199.165 190.935C199.033 191.043 199.014 191.239 199.122 191.372C202.061 194.959 204.828 198.754 207.345 202.651C207.405 202.743 207.504 202.793 207.606 202.793Z" fill="white"/>
<path d="M181.383 215.331C181.424 215.331 181.467 215.322 181.507 215.304C181.664 215.235 181.735 215.052 181.666 214.895C179.981 211.055 180.227 206.608 180.444 202.685C180.596 199.938 180.769 196.824 182.198 194.274C182.282 194.124 182.228 193.935 182.08 193.851C181.93 193.767 181.742 193.82 181.658 193.969C180.158 196.646 179.982 199.836 179.826 202.651C179.605 206.644 179.355 211.169 181.099 215.145C181.15 215.261 181.264 215.331 181.383 215.331Z" fill="white"/>
<path d="M189.463 236.269C189.583 236.269 189.696 236.211 189.77 236.109C189.821 236.037 189.849 235.952 189.851 235.868C194.387 234.827 198.788 233.223 202.934 231.102C203.086 231.024 203.146 230.837 203.069 230.684C202.991 230.532 202.804 230.471 202.652 230.549C198.513 232.667 194.116 234.263 189.584 235.291C189.471 235.318 189.282 235.361 189.152 235.526C189.051 235.653 189.023 235.836 189.08 235.991C189.132 236.132 189.247 236.233 189.389 236.261C189.414 236.266 189.438 236.269 189.463 236.269Z" fill="white"/>
<path d="M211.883 263.813C211.967 263.813 212.051 263.779 212.112 263.712C212.227 263.586 212.218 263.389 212.092 263.274C206.834 258.457 202.971 252.348 199.58 246.463C199.495 246.314 199.305 246.263 199.157 246.349C199.009 246.435 198.958 246.625 199.044 246.773C202.46 252.701 206.354 258.858 211.675 263.732C211.734 263.786 211.809 263.813 211.883 263.813Z" fill="white"/>
<path d="M232.882 265.31C232.913 265.31 232.944 265.305 232.975 265.295C239.328 263.277 245.252 260.223 250.584 256.219C250.721 256.116 250.749 255.921 250.646 255.784C250.544 255.647 250.35 255.62 250.213 255.722C244.936 259.685 239.074 262.706 232.788 264.703C232.625 264.755 232.535 264.929 232.586 265.093C232.628 265.225 232.75 265.31 232.882 265.31Z" fill="white"/>
<path d="M235.561 278.13C235.659 278.13 235.754 278.084 235.815 277.998C237.052 276.246 238.332 274.434 239.953 272.994C240.544 272.469 241.193 271.984 241.821 271.515C242.092 271.313 242.362 271.11 242.629 270.905C244.994 269.081 247.115 266.955 248.932 264.584C249.036 264.448 249.011 264.253 248.875 264.149C248.74 264.044 248.545 264.07 248.441 264.206C246.656 266.534 244.574 268.622 242.251 270.412C241.987 270.617 241.718 270.817 241.451 271.017C240.812 271.494 240.153 271.987 239.542 272.529C237.867 274.017 236.567 275.858 235.309 277.64C235.21 277.78 235.243 277.973 235.382 278.073C235.437 278.111 235.5 278.13 235.561 278.13Z" fill="white"/>
<path d="M223.802 290.612C223.966 290.612 224.103 290.483 224.111 290.317C224.372 285.015 226.214 279.719 229.297 275.403C229.397 275.264 229.365 275.07 229.226 274.97C229.087 274.87 228.894 274.902 228.794 275.042C225.642 279.453 223.759 284.867 223.492 290.286C223.484 290.458 223.615 290.603 223.786 290.612C223.792 290.612 223.797 290.612 223.802 290.612Z" fill="white"/>
<path d="M208.851 275.587C208.992 275.587 209.12 275.489 209.153 275.345C209.191 275.178 209.086 275.011 208.919 274.974C202.399 273.492 196.06 271.223 190.078 268.231C189.926 268.154 189.739 268.217 189.663 268.37C189.587 268.524 189.649 268.71 189.802 268.786C195.828 271.8 202.214 274.086 208.782 275.579C208.805 275.585 208.829 275.587 208.851 275.587Z" fill="white"/>
<path d="M197.348 147.038C197.499 146.372 197.47 145.473 196.827 145.247C196.404 145.099 195.949 145.351 195.597 145.63C194.876 146.199 194.278 146.922 193.853 147.736C193.379 146.994 192.77 146.339 192.065 145.814C191.916 145.703 191.754 145.595 191.57 145.583C191.124 145.554 190.851 146.076 190.81 146.522C190.7 147.704 191.359 148.811 192.051 149.775C192.502 150.403 193.004 151.781 193.553 152.234C194.343 152.886 194.575 152.355 195.204 151.547C196.233 150.223 196.975 148.675 197.348 147.038Z" fill="#D14A43"/>
<path d="M170.856 156.646C170.758 156.618 170.646 156.595 170.559 156.649C170.449 156.717 170.437 156.872 170.443 157.003C170.49 157.885 170.847 158.748 171.436 159.405C170.922 159.149 170.397 158.89 169.83 158.795C169.263 158.7 168.637 158.793 168.206 159.174C167.774 159.554 167.616 160.262 167.954 160.728C168.271 161.165 168.872 161.26 169.408 161.318C170.997 161.492 173.92 162.66 173.758 160.273C173.648 158.65 172.408 157.1 170.856 156.646Z" fill="#D14A43"/>
</svg>
