<svg width="278" height="300" viewBox="0 0 278 300" fill="none" xmlns="http://www.w3.org/2000/svg">
<path d="M142.497 49.0513C139.711 53.5681 135.046 56.5123 131.156 60.1183C124.028 66.7257 119.32 77.537 123.636 86.2537C125.03 89.0678 127.231 91.3995 128.794 94.1228C131.143 98.2148 131.954 103.17 131.033 107.799C129.766 114.168 125.449 119.573 123.967 125.895C122.199 133.433 124.808 141.625 129.88 147.466C134.953 153.308 142.239 156.936 149.798 158.547C156.719 160.021 164.085 159.877 170.705 157.371C177.324 154.865 183.119 149.865 185.894 143.343C187.707 139.082 188.717 133.706 192.946 131.836C194.45 131.171 196.14 131.094 197.784 131.061C201.919 130.978 206.058 131.108 210.179 131.451C215.047 131.856 219.975 132.555 224.784 131.698C231.017 130.588 236.558 126.918 241.032 122.43C244.697 118.754 247.894 114.135 248.051 108.941C248.254 102.262 243.534 96.6236 239.891 91.0266C229.26 74.6922 226.109 53.6763 212.632 39.6071C205.317 31.971 195.502 27.0899 185.323 24.2644C178.819 22.4592 172.143 21.4714 165.439 20.7881C161.161 20.3519 155.466 18.8138 151.21 19.9203C146.568 21.1273 145.607 24.9944 145.437 29.4342C145.176 36.2819 146.32 42.8533 142.497 49.0513Z" fill="#392235"/>
<path d="M207.129 113.871C197.873 117.167 187.463 120.428 178.547 116.31C179.346 112.739 179.645 108.859 179.295 105.082C179.088 102.834 178.65 100.622 177.954 98.5403C176.464 94.0762 173.252 90.6918 172.772 85.7677C172.447 82.4247 173.602 78.7149 176.443 76.9323C178.315 75.7593 180.63 75.5684 182.837 75.6252C187.37 75.7439 191.877 76.7982 195.991 78.7048C198.811 80.0119 201.575 81.8411 202.967 84.626C204.499 87.6743 204.128 91.286 203.963 94.6963C203.797 98.0653 203.88 101.491 204.39 104.823C204.87 107.96 205.731 111.019 207.129 113.871Z" fill="#FFBC91"/>
<path d="M179.188 112.954C186.063 117.838 195.947 117.997 202.974 113.335C204.067 112.61 205.116 111.77 206.359 111.351C207.194 111.068 208.083 110.989 208.961 110.921C213.901 110.539 218.863 110.443 223.813 110.633C226.799 110.748 229.838 110.98 232.609 112.099C236.056 113.491 238.843 116.163 241.146 119.086C246.733 126.177 249.926 135.129 250.091 144.162C250.194 149.791 249.158 155.396 249.283 161.025C249.418 167.178 250.933 173.211 251.598 179.33C252.579 188.349 251.716 197.583 253.733 206.428C254.843 206.371 255.952 206.314 257.062 206.257C255.973 208.444 257.947 210.954 260.058 212.178C262.169 213.402 264.73 214.253 265.914 216.39C266.057 216.649 266.217 216.953 266.507 217.004C266.798 217.055 267.035 216.555 266.75 216.478C268.397 226.897 269.942 237.548 271.589 247.967C271.703 248.689 271.816 249.435 271.634 250.142C271.432 250.921 270.894 251.566 270.322 252.131C266.344 256.065 260.438 257.231 254.867 257.685C231.141 259.615 206.667 252.057 183.772 258.588C177.07 260.5 170.742 263.573 164.037 265.47C158.554 267.021 152.846 267.771 147.149 267.689C145.777 267.669 144.351 267.587 143.147 266.928C139.568 264.97 140.142 259.745 141.059 255.763C145.752 235.383 146.119 214.246 145.188 193.351C144.515 178.249 143.301 162.434 149.533 148.667C152.011 143.194 155.572 138.296 159.107 133.441C161.97 129.51 165.21 125.714 168.079 121.787C170.948 117.86 174.727 114.879 179.188 112.954Z" fill="#F0A050"/>
<path d="M204.391 104.823C202.044 106.327 199.379 107.36 196.62 107.789C192.506 108.43 188.283 107.825 184.266 106.72C182.74 106.301 181.007 105.769 179.295 105.082C179.089 102.834 178.65 100.622 177.955 98.5403C176.464 94.0762 173.252 90.6918 172.772 85.7677C172.448 82.4247 173.602 78.7149 176.444 76.9323C178.316 75.7593 180.631 75.5684 182.838 75.6252C187.37 75.7439 191.877 76.7982 195.991 78.7048C198.812 80.0119 201.576 81.8411 202.968 84.626C204.499 87.6743 204.128 91.286 203.963 94.6963C203.797 98.0653 203.88 101.491 204.391 104.823Z" fill="#EF9B6C"/>
<path d="M217.605 206.096C221.719 205.935 226 205.876 229.747 207.585C234.331 209.674 237.47 214.206 238.899 219.045C239.212 220.104 239.454 221.242 239.156 222.306C238.668 224.05 236.917 225.081 235.293 225.875C225.314 230.751 214.301 233.49 203.204 233.856C202.202 233.889 201.11 233.874 200.325 233.248C199.668 232.724 199.37 231.879 199.124 231.075C198.067 227.617 197.41 224.038 197.156 220.431C196.969 217.768 196.209 212.521 197.64 210.115C200.327 205.601 212.992 206.277 217.605 206.096Z" fill="#FFBC91"/>
<path d="M219.808 59.9708C221.964 57.9212 223.021 54.6997 222.263 51.8204C221.505 48.9411 218.851 46.6004 215.883 46.4427C215.044 46.3982 214.205 46.5335 213.415 46.814C211.306 37.99 207.824 29.5092 200.414 24.735C196.131 21.9761 191.006 20.8388 185.945 20.2892C166.069 18.1309 149.094 29.3475 148.669 50.2745C148.579 54.7289 148.982 59.2234 149.907 63.5923C148.522 63.6612 147.157 64.1407 146.078 65.0157C143.768 66.8891 142.989 70.3452 144.062 73.122C145.136 75.8988 147.878 77.8852 150.824 78.2768C152.091 78.4454 153.422 78.3359 154.572 77.775C154.729 77.698 154.88 77.6116 155.027 77.5192C156.121 79.4963 157.359 81.3944 158.752 83.1863C165.932 92.4157 177.392 98.5484 189.057 97.9859C200.721 97.4233 212.054 89.5246 215.413 78.3165C217.009 72.9891 216.826 67.3812 216.113 61.8154C216.235 61.8032 216.357 61.7903 216.479 61.7684C217.739 61.5471 218.88 60.8528 219.808 59.9708Z" fill="#FFBC91"/>
<path d="M277.416 144.133C278.771 160.896 278.326 186.441 269.933 201.004C265.265 209.105 259.51 217.767 250.465 220.081C244.585 221.585 237.072 222.269 232.621 218.136C208.4 195.648 232.053 153.029 234.115 106.128C234.195 104.305 234.296 102.422 235.064 100.768C236.334 98.032 239.415 96.6799 242.317 95.8725C247.05 94.5552 253.666 93.0528 258.318 95.2536C263.196 97.5619 273.601 96.9284 277.416 144.133Z" fill="#EFEFEF"/>
<path d="M245.574 84.5652L244.663 84.0828C251.601 70.9094 251.427 53.9791 244.219 40.9511C239.804 32.9726 232.625 25.8468 223.456 20.3447C216.083 15.9203 207.358 12.3986 195.998 9.26103L196.272 8.26477C207.725 11.4274 216.531 14.984 223.985 19.4579C233.309 25.0532 240.618 32.3123 245.121 40.4498C252.493 53.7752 252.671 71.0914 245.574 84.5652Z" fill="#372836"/>
<path d="M186.943 37.3415C187.889 39.3064 190.011 40.4632 192.14 40.92C194.268 41.3767 196.472 41.2596 198.645 41.3877C206.395 41.8449 213.896 45.6025 218.912 51.5395C219.385 46.9793 217.142 42.587 214.568 38.7969C209.454 31.2715 202.736 24.8473 194.995 20.0812C192.648 18.6359 190.131 17.3166 187.394 17.0081C182.162 16.4188 177.11 19.7176 174.072 24.0265C171.033 28.3354 169.604 33.5433 168.151 38.6149C166.281 45.1437 164.231 51.6818 161.15 57.7538C159.638 60.7332 157.879 63.5968 155.783 66.2017C154.817 67.403 150.014 71.1019 150.325 72.6129C151.286 77.2882 163.088 69.5759 164.676 68.5043C169.77 65.0672 174.278 60.7624 177.968 55.8452C180.075 53.0368 181.917 50.0269 183.444 46.8638C184.202 45.2928 187.732 38.9814 186.943 37.3415Z" fill="#EF9B6C"/>
<path d="M177.788 61.5657L175.437 60.1718C175.345 59.9716 175.195 59.7961 174.991 59.6766C174.461 59.3661 173.782 59.5452 173.473 60.0754C171.997 62.6045 170.148 64.1204 167.975 64.5812C164.204 65.3801 160.567 62.7979 160.52 62.7638C160.024 62.4039 159.331 62.5137 158.971 63.0102C158.925 63.0735 158.888 63.1399 158.857 63.2088C158.848 63.2206 158.837 63.2295 158.828 63.2417L157.012 65.7903C156.681 66.2548 156.788 66.9 157.252 67.2316C157.433 67.3617 157.643 67.4241 157.85 67.4241C158.172 67.4241 158.489 67.2737 158.691 66.9912L160.045 65.0907C160.827 65.5463 162.105 66.1887 163.667 66.5904L163.312 69.1062C163.232 69.6712 163.625 70.194 164.189 70.2739C164.41 70.3055 164.625 70.2637 164.809 70.1677C165.094 70.0189 165.306 69.7389 165.354 69.3952L165.702 66.93C165.953 66.9487 166.208 66.96 166.467 66.96C167.101 66.96 167.754 66.9 168.416 66.761C169.033 66.6317 169.626 66.4372 170.196 66.1855L171.401 68.3259C171.68 68.8232 172.309 68.9987 172.806 68.7187C173 68.6088 173.145 68.4451 173.233 68.257C173.369 67.9648 173.368 67.6134 173.198 67.3114L171.98 65.1479C173.005 64.3908 173.937 63.4002 174.769 62.1782L176.738 63.3458C177.229 63.6365 177.861 63.4739 178.151 62.9827C178.264 62.7902 178.309 62.5758 178.291 62.3686C178.263 62.0456 178.086 61.742 177.788 61.5657Z" fill="#201600"/>
<path d="M183.903 25.1135C184.264 30.6253 189.7 34.3412 194.885 36.2174C200.07 38.0936 205.855 39.1827 209.764 43.0777C215.266 48.5612 215.029 57.3998 217.733 64.6886C219.169 68.5573 221.512 72.0843 224.521 74.9041C228.343 78.4874 234.155 80.9173 238.788 78.4757C242.722 76.4021 244.359 71.5789 244.687 67.1367C245.323 58.5076 242.377 49.979 238.397 42.3012C230.43 26.9354 217.663 13.6075 201.519 7.43298C185.374 1.25845 165.795 3.13019 152.561 14.2641C148.77 17.4531 145.442 21.5297 144.445 26.3878C143.145 32.7188 145.969 39.1969 145.653 45.6531C145.434 50.1257 143.722 54.3673 142.149 58.5582C140.575 62.7492 139.096 67.1245 139.374 71.5935C139.667 76.3056 143.07 83.6138 148.438 81.0397C153.371 78.6743 157.964 75.0244 161.951 71.3154C170.107 63.7263 176.416 54.1399 180.157 43.635C182.278 37.6818 183.573 31.4287 183.903 25.1135Z" fill="#392235"/>
<path d="M210.647 56.186L208.296 54.7921C208.204 54.5919 208.054 54.4164 207.85 54.2968C207.32 53.9863 206.641 54.1655 206.332 54.6956C204.857 57.2248 203.007 58.7407 200.835 59.2015C197.063 60.0004 193.427 57.4181 193.379 57.3841C192.883 57.0242 192.191 57.134 191.831 57.6305C191.785 57.6938 191.747 57.7606 191.716 57.8291C191.707 57.8409 191.696 57.8498 191.687 57.8619L189.871 60.4106C189.54 60.8751 189.648 61.5203 190.111 61.8518C190.293 61.9819 190.502 62.0444 190.71 62.0444C191.032 62.0444 191.348 61.894 191.55 61.6115L192.904 59.711C193.686 60.1665 194.965 60.809 196.526 61.2107L196.171 63.7264C196.092 64.2914 196.485 64.8142 197.048 64.8941C197.269 64.9257 197.484 64.884 197.668 64.7879C197.954 64.6392 198.166 64.3591 198.214 64.0154L198.561 61.5503C198.813 61.5689 199.068 61.5803 199.326 61.5803C199.96 61.5803 200.613 61.5203 201.276 61.3813C201.892 61.252 202.485 61.0574 203.056 60.8057L204.261 62.9462C204.54 63.4435 205.169 63.619 205.665 63.3386C205.86 63.2287 206.005 63.065 206.093 62.8769C206.229 62.5847 206.228 62.2332 206.057 61.9313L204.84 59.7677C205.865 59.011 206.796 58.02 207.629 56.798L209.598 57.9653C210.088 58.2559 210.721 58.0934 211.011 57.6021C211.124 57.4096 211.168 57.1952 211.15 56.9881C211.122 56.6659 210.946 56.3627 210.647 56.186Z" fill="#201600"/>
<path d="M134.189 130.81C124.734 141.441 121.983 156.428 121.332 170.653C120.399 191.013 123.001 211.53 128.986 231.008C131.863 240.372 136.542 250.534 145.786 253.725C149.458 254.992 153.442 254.972 157.313 254.66C169.751 253.659 181.946 249.753 192.656 243.339C195.096 241.879 197.628 240.071 198.438 237.341C199.062 235.237 198.535 232.984 198.007 230.854C196.765 225.849 195.524 220.844 194.283 215.839C193.861 214.137 193.395 212.354 192.187 211.085C188.65 207.371 182.53 210.668 177.413 210.428C172.934 210.218 169.008 206.982 166.891 203.021C164.775 199.06 164.196 194.463 164.01 189.974C163.295 172.672 168.025 155.184 177.361 140.612C180.089 136.355 183.238 132.261 184.807 127.452C194.368 98.1585 142.65 121.297 134.189 130.81Z" fill="#F0A050"/>
<path d="M267.943 58.3868C268.175 60.0158 268.41 63.8634 268.533 67.7771C268.669 72.0795 268.67 76.4625 268.367 78.0801C267.12 84.8116 264.887 90.2046 261.976 94.4207C254.521 105.214 245.932 105.771 233.878 105.444C216.343 104.969 211.927 88.6203 208.76 78.898C205.586 69.173 204.403 49.1952 206.708 47.9245C208.195 47.1082 218.831 54.9433 221.873 62.3731C222.422 62.2186 222.968 62.0598 223.522 61.9037C225.114 61.4567 226.717 61.0108 228.329 60.6007C229.697 60.2472 231.075 59.9173 232.453 59.6206C234.687 59.1439 236.924 58.7601 239.163 58.525C240.693 58.358 242.224 58.2672 243.753 58.2672C245.694 58.2604 247.636 58.3974 249.556 58.7204C250.32 58.8477 251.084 59.0033 251.843 59.1882C252.291 59.3008 252.836 59.392 253.149 59.0584C253.318 58.8813 259.86 42.1926 263.177 42.4893C264.074 42.5756 266.877 50.7422 267.943 58.3868Z" fill="#EFEFEF"/>
<path d="M268.533 67.7771C268.669 72.0795 268.67 76.4626 268.367 78.0802C267.12 84.8116 264.886 90.2046 261.976 94.4207C261.733 94.3939 261.49 94.3672 261.25 94.334C256.111 93.6368 245.801 91.4324 247.075 88.2426C248.708 84.1578 246.84 80.3539 244.309 79.4237C243.506 79.1283 241.396 79.8165 240.82 79.1769C238.833 76.9546 238.64 73.3291 240.387 70.9122C241.56 69.2812 243.42 68.2736 245.301 67.5748C251.215 65.3768 257.794 65.7036 263.956 67.048C265.496 67.3872 266.989 67.6393 268.533 67.7771Z" fill="#312A20"/>
<path d="M219.298 63.2027C217.461 60.9853 215.587 58.7852 213.676 56.603C212.685 55.4722 211.667 54.3317 210.258 53.4663C210.05 53.3382 209.778 53.2102 209.5 53.286C209.312 53.3375 209.184 53.4683 209.085 53.5956C208.522 54.3187 208.454 55.1516 208.425 55.9464C208.3 59.3823 208.641 62.7913 209.431 66.1177C209.678 67.159 209.621 67.4792 210.927 66.6641C211.73 66.1631 212.575 65.6994 213.455 65.2759C213.962 65.0319 219.013 62.859 219.298 63.2027Z" fill="#C8C7C7"/>
<path d="M255.569 59.3151C256.735 56.5784 257.974 53.8851 259.209 51.1728C259.849 49.7671 260.51 48.3457 261.545 47.1452C261.698 46.9676 261.905 46.7779 262.15 46.8063C262.316 46.8254 262.446 46.9421 262.551 47.06C263.144 47.73 263.341 48.6132 263.499 49.4627C264.182 53.1344 264.47 56.867 264.367 60.5954C264.336 61.7627 264.437 62.0963 263.205 61.4693C262.449 61.0842 261.662 60.7466 260.853 60.4597C260.387 60.2939 255.75 58.8907 255.569 59.3151Z" fill="#C8C7C7"/>
<path d="M225.132 76.1638C225.291 78.1425 223.819 79.8756 221.845 80.0353C219.87 80.1946 218.141 78.7201 217.982 76.7414C217.823 74.7626 219.294 73.0295 221.269 72.8702C223.243 72.7105 224.973 74.1855 225.132 76.1638Z" fill="#201600"/>
<path d="M256.024 74.3463C256.183 76.3251 254.712 78.0582 252.737 78.2179C250.763 78.3772 249.033 76.9027 248.874 74.9239C248.715 72.9452 250.187 71.2121 252.161 71.0528C254.135 70.8927 255.865 72.3676 256.024 74.3463Z" fill="#201600"/>
<path d="M226.347 84.4897C226.332 84.4909 226.316 84.4909 226.3 84.4893L214.972 83.3248C214.83 83.3102 214.727 83.1834 214.742 83.0415C214.756 82.8997 214.882 82.7951 215.024 82.8109L226.353 83.9753C226.494 83.9899 226.597 84.1168 226.583 84.2587C226.57 84.3843 226.469 84.48 226.347 84.4897Z" fill="#201600"/>
<path d="M215.476 89.0122C215.343 89.0228 215.222 88.9291 215.201 88.7946C215.179 88.6535 215.275 88.5214 215.416 88.4995L226.761 86.7275C226.906 86.704 227.033 86.8021 227.055 86.9427C227.077 87.0838 226.981 87.2159 226.84 87.2378L215.495 89.0098C215.489 89.011 215.482 89.0118 215.476 89.0122Z" fill="#201600"/>
<path d="M217.808 94.1042C217.707 94.1123 217.605 94.0592 217.557 93.9619C217.493 93.8342 217.545 93.679 217.673 93.6154L227.111 88.8979C227.237 88.8347 227.393 88.8858 227.456 89.0139C227.52 89.1415 227.468 89.2968 227.341 89.3604L217.903 94.0778C217.873 94.0928 217.84 94.1018 217.808 94.1042Z" fill="#201600"/>
<path d="M250.554 82.7579C250.57 82.7567 250.586 82.7542 250.601 82.7498L261.597 79.7833C261.734 79.746 261.815 79.6046 261.779 79.4667C261.742 79.3289 261.601 79.2458 261.463 79.2843L250.467 82.2508C250.329 82.2881 250.248 82.4295 250.285 82.5673C250.318 82.6893 250.433 82.7676 250.554 82.7579Z" fill="#201600"/>
<path d="M262.008 85.4784C262.141 85.4679 262.246 85.3557 262.245 85.2195C262.244 85.0768 262.128 84.9621 261.985 84.9629L250.503 85.0338C250.357 85.0338 250.247 85.151 250.247 85.2936C250.248 85.4363 250.364 85.551 250.507 85.5502L261.989 85.4793C261.995 85.4793 262.001 85.4788 262.008 85.4784Z" fill="#201600"/>
<path d="M260.519 90.8788C260.62 90.8707 260.712 90.8018 260.744 90.698C260.786 90.5618 260.71 90.4171 260.574 90.3746L250.504 87.2318C250.369 87.1896 250.224 87.265 250.182 87.4016C250.139 87.5378 250.215 87.6825 250.351 87.7251L260.421 90.8678C260.454 90.8775 260.487 90.8812 260.519 90.8788Z" fill="#201600"/>
<path d="M224.297 74.4453C224.348 75.0731 223.881 75.6227 223.254 75.6734C222.628 75.724 222.079 75.2559 222.029 74.6285C221.978 74.0006 222.445 73.451 223.072 73.4004C223.698 73.3497 224.247 73.8178 224.297 74.4453Z" fill="white"/>
<path d="M255.281 72.5861C255.332 73.214 254.864 73.7636 254.238 73.8142C253.612 73.8649 253.063 73.3968 253.013 72.7693C252.962 72.1415 253.429 71.5919 254.055 71.5412C254.682 71.4906 255.23 71.9587 255.281 72.5861Z" fill="white"/>
<path d="M235.581 81.0007C234.622 79.4346 240.712 78.6009 241.259 79.8108C241.721 80.8297 238.108 85.2123 235.581 81.0007Z" fill="#201600"/>
<path d="M235.467 87.0221C233.325 87.1951 230.951 86.3026 230.814 86.2507C230.681 86.2001 230.614 86.0506 230.665 85.9176C230.715 85.7847 230.864 85.717 230.997 85.7684C231.041 85.7842 235.376 87.4124 237.364 85.8454C238.188 85.1965 238.503 84.0576 238.301 82.4603C238.283 82.3188 238.383 82.1895 238.524 82.1713C238.664 82.1539 238.794 82.2532 238.813 82.395C239.039 84.1853 238.659 85.4831 237.683 86.252C237.07 86.7343 236.285 86.956 235.467 87.0221Z" fill="#201600"/>
<path d="M241.878 86.642C241.287 86.6898 240.711 86.6249 240.197 86.3862C239.091 85.8735 238.465 84.6547 238.335 82.7648C238.325 82.6237 238.43 82.5009 238.571 82.4896C238.572 82.4896 238.573 82.4895 238.574 82.4891C238.716 82.4794 238.839 82.5868 238.849 82.7291C238.965 84.4164 239.492 85.4889 240.414 85.9169C242.591 86.9281 246.34 84.1955 246.377 84.1675C246.492 84.0824 246.653 84.108 246.738 84.2223C246.822 84.3374 246.797 84.4987 246.683 84.5834C246.554 84.6798 244.109 86.462 241.878 86.642Z" fill="#201600"/>
<path d="M222.28 234.75C222.332 240.965 224.844 247.199 223.474 253.26C222.623 257.019 220.351 260.298 219.145 263.958C216.363 272.408 219.574 281.647 223.765 289.491C225.552 292.836 227.629 296.195 230.799 298.27C233.968 300.345 238.501 300.776 241.392 298.327C244.439 295.746 244.623 290.969 243.196 287.236C241.769 283.503 239.085 280.414 237.001 277.005C234.918 273.595 233.402 269.432 234.651 265.635C235.648 262.606 238.259 260.288 239.108 257.215C240.889 250.77 234.392 243.601 237.48 237.672C238.866 235.009 241.808 233.573 243.771 231.302C246.601 228.029 247.074 222.922 244.894 219.183C235.905 203.765 222.197 224.922 222.28 234.75Z" fill="#EFEFEF"/>
<path d="M221.047 169.191C216.824 170.232 213.562 173.991 212.495 178.216C211.429 182.441 212.356 187.006 214.407 190.849C215.659 193.194 217.335 195.369 217.977 197.949C214.007 198.154 210.068 198.967 206.34 200.349C204.267 201.118 201.898 202.677 202.226 204.866C202.61 207.426 206.051 207.877 208.633 207.798C216.694 207.552 224.789 208.485 232.583 210.558C233.728 210.862 234.902 211.194 236.078 211.056C237.54 210.883 238.831 209.996 239.859 208.941C243.477 205.231 244.299 199.622 244.225 194.436C244.128 187.719 242.591 180.907 238.153 175.69C234.382 171.259 226.85 167.761 221.047 169.191Z" fill="#EFEFEF"/>
<path d="M229.798 176.737C226.865 193.329 229.96 210.445 234.944 226.538C237.329 234.24 241.024 242.713 248.636 245.331C252.454 246.645 256.661 246.202 260.576 245.215C264.269 244.284 267.921 242.836 270.779 240.316C275.409 236.237 277.396 229.787 277.417 223.609C277.438 217.432 275.728 211.395 274.032 205.455C272.378 199.66 270.723 193.864 269.069 188.068C266.643 179.569 264.217 171.07 261.708 162.596C260.044 156.977 257.177 150.342 251.36 149.726C248.537 149.427 236.667 151.373 234.543 153.59C232.579 155.64 233.112 161.026 232.596 163.734C231.764 168.09 230.57 172.368 229.798 176.737Z" fill="#F0A050"/>
<path d="M207.066 233.568C204.1 235.439 201.133 237.311 198.167 239.182C197.861 239.375 197.527 239.576 197.167 239.547C196.766 239.515 196.446 239.208 196.173 238.911C190.283 232.518 189.159 223.192 188.319 214.532C188.212 213.426 188.111 212.273 188.505 211.234C189.156 209.516 190.953 208.571 192.607 207.776C200.247 204.105 202.086 206.258 202.258 213.702C202.295 215.299 205.766 234.388 207.066 233.568Z" fill="#F9D4B3"/>
<path d="M219.92 112.171C219.1 113.88 218.59 115.719 218.111 117.553C216.49 123.764 215.194 130.061 214.229 136.408C213.74 139.625 213.358 143.033 214.609 146.036C215.859 149.038 219.323 151.364 222.364 150.224C224.785 149.315 226.079 146.611 226.404 144.041C226.73 141.471 226.335 138.857 226.581 136.278C226.998 131.909 229.225 127.91 231.875 124.415C233.619 122.116 235.579 119.95 236.917 117.392C238.256 114.834 238.916 111.737 237.871 109.046C236.372 105.183 232.667 102.439 228.792 104.057C224.963 105.656 221.737 108.377 219.92 112.171Z" fill="#C8C7C7"/>
<path d="M259.621 130.202C261.842 125.244 263.832 119.625 262.058 114.489C261.846 113.876 261.559 113.25 261.029 112.878C259.463 111.779 257.51 113.606 256.553 115.264C254.619 118.615 253.05 122.176 251.883 125.866C250.012 121.445 247.799 117.169 245.27 113.091C244.991 112.64 244.686 112.171 244.217 111.925C243.499 111.548 242.627 111.794 241.864 112.067C235.019 114.509 228.738 118.523 223.64 123.713C222.926 124.439 222.197 125.274 222.126 126.291C222.055 127.301 222.653 128.227 223.268 129.031C227.506 134.575 233.975 139.038 235.139 145.923C235.241 146.527 235.308 147.163 235.649 147.671C236.357 148.722 237.864 148.761 239.125 148.646C243.045 148.287 251.345 147.87 254.339 144.911C257.059 142.222 257.925 133.987 259.621 130.202Z" fill="#FFBC91"/>
<path d="M233.646 103.471C229.891 104.282 226.088 105.163 222.73 107.034C219.825 108.652 217.364 110.95 214.965 113.255C211.672 116.418 208.38 119.715 206.297 123.781C205.761 124.828 205.305 125.939 205.19 127.11C204.863 130.437 207.62 133.61 210.897 134.231C214.174 134.852 217.63 133.215 219.689 130.585C220.768 129.209 221.509 127.597 222.525 126.174C224.451 123.474 227.273 121.567 230.106 119.847C236.103 116.204 242.44 113.124 249.007 110.66C251.365 109.775 254.252 108.693 254.782 105.886C255.175 103.804 254.064 102.413 252.163 101.723C246.852 99.7935 238.93 102.329 233.646 103.471Z" fill="#EFEFEF"/>
<path d="M190.014 51.657C189.67 51.657 189.323 51.5354 189.045 51.2878C188.442 50.7511 188.388 49.8266 188.924 49.2227C188.993 49.1441 196.014 41.4193 206.611 46.191C207.347 46.5221 207.675 47.3879 207.344 48.1251C207.014 48.8616 206.15 49.1907 205.414 48.8596C196.751 44.9584 191.161 51.1037 191.106 51.1662C190.818 51.4912 190.417 51.657 190.014 51.657Z" fill="#392235"/>
<path d="M160.058 58.3852C159.754 58.3852 159.448 58.2779 159.203 58.059C158.67 57.5852 158.622 56.7689 159.095 56.2355C159.157 56.1662 165.356 49.3448 174.714 53.5584C175.363 53.8506 175.653 54.6155 175.361 55.2664C175.069 55.9165 174.306 56.2071 173.657 55.9149C166.007 52.4701 161.071 57.8965 161.022 57.9516C160.768 58.2385 160.414 58.3852 160.058 58.3852Z" fill="#392235"/>
<path d="M233.724 157.29C241.527 157.09 249.308 156.021 256.878 154.11C257.206 154.027 257.56 153.926 257.761 153.653C257.953 153.392 257.955 153.041 257.947 152.716C257.854 149.207 257.473 145.704 256.809 142.257C256.719 141.788 256.607 141.291 256.268 140.956C255.565 140.263 254.4 140.65 253.484 141.015C247.879 143.251 241.744 142.928 235.999 144.55C230.349 146.146 231.902 152.726 233.724 157.29Z" fill="#F9D4B3"/>
<path d="M186.001 73.6711C185.664 73.6711 185.326 73.5977 185.005 73.4498C184.229 73.0923 183.721 72.3697 183.647 71.5165C183.379 68.4552 184.016 64.1588 184.043 63.9768C184.093 63.6453 184.401 63.4143 184.733 63.4661C185.064 63.516 185.293 63.8261 185.243 64.1576C185.236 64.2006 184.6 68.494 184.855 71.4103C184.891 71.8229 185.136 72.1723 185.511 72.3449C185.895 72.5224 186.33 72.4791 186.676 72.2318C187.179 71.8707 187.679 71.4808 188.164 71.0726C188.421 70.8558 188.803 70.8898 189.019 71.1464C189.235 71.4034 189.202 71.7868 188.945 72.0028C188.437 72.4321 187.911 72.8414 187.383 73.2208C186.966 73.5191 186.486 73.6711 186.001 73.6711Z" fill="#EF9B6C"/>
<path d="M188.089 88.0561C185.194 88.0561 182.469 87.2135 180.72 86.3457C180.119 86.0478 179.873 85.3182 180.171 84.7163C180.468 84.1152 181.195 83.8689 181.796 84.1659C182.181 84.3556 191.023 88.596 195.73 81.7957C196.112 81.2436 196.868 81.1062 197.419 81.4897C197.969 81.8723 198.106 82.6298 197.724 83.1819C195.164 86.8807 191.509 88.0561 188.089 88.0561Z" fill="#D4584D"/>
<path d="M133.841 113.928C133.82 112.697 134.018 111.527 134.209 110.394C134.448 108.982 134.674 107.648 134.491 106.241C134.126 103.423 132.632 100.436 130.049 97.3617C129.089 96.2183 128.036 95.1009 127.017 94.0203C124.716 91.5795 122.336 89.0552 120.786 85.9927C118.012 80.5153 118.083 73.2371 120.976 66.524C123.738 60.1143 128.47 54.9263 132.734 50.6965C133.137 50.2977 133.542 49.8997 133.949 49.5008C137.225 46.2859 140.612 42.9619 142.499 38.8087C143.52 36.5633 144.089 34.0872 144.64 31.693C144.993 30.1589 145.358 28.5729 145.84 27.0416C146.744 24.1688 148.965 19.1158 153.678 17.55L154.003 18.5309C149.725 19.9519 147.669 24.6678 146.824 27.3525C146.354 28.8449 145.994 30.4106 145.645 31.9249C145.083 34.3693 144.502 36.8972 143.438 39.2371C141.47 43.5654 138.014 46.9579 134.671 50.2389C134.265 50.6365 133.861 51.0333 133.46 51.4309C129.266 55.5914 124.615 60.6862 121.923 66.9337C119.15 73.3685 119.069 80.3187 121.706 85.5254C123.189 88.4546 125.516 90.9233 127.767 93.311C128.796 94.4021 129.859 95.5301 130.839 96.6962C133.551 99.9241 135.124 103.091 135.515 106.108C135.717 107.668 135.468 109.142 135.226 110.567C135.043 111.652 134.853 112.774 134.873 113.909L133.841 113.928Z" fill="#392235"/>
<path d="M126.861 79.1676L125.962 78.6622C129.436 72.4528 131.7 65.4328 132.507 58.3605C132.781 55.9562 132.897 53.487 133.009 51.0985C133.16 47.8872 133.316 44.5665 133.858 41.3293C135.332 32.532 139.698 24.3037 146.153 18.1604C152.607 12.0171 161.032 8.07103 169.875 7.04883L169.993 8.07547C161.371 9.07172 153.156 12.9193 146.862 18.9095C140.569 24.8996 136.312 32.9223 134.875 41.4999C134.343 44.6759 134.189 47.9655 134.039 51.1464C133.926 53.5519 133.81 56.0385 133.531 58.4773C132.709 65.6853 130.402 72.8395 126.861 79.1676Z" fill="#392235"/>
<path d="M223.122 26.9994C217.777 23.7966 214.19 18.5211 210.721 13.4194C209.785 12.0438 208.818 10.6212 207.837 9.27106C205.631 6.23649 202.86 2.96079 199.036 1.6723C195.845 0.597413 192.39 1.08744 189.738 1.6342C185.147 2.58061 180.727 4.19006 176.6 6.41725L176.111 5.50733C180.326 3.23231 184.841 1.58878 189.53 0.622111C192.31 0.0494051 195.939 -0.460863 199.364 0.693061C203.463 2.07396 206.369 5.49681 208.671 8.6627C209.662 10.0258 210.634 11.4553 211.574 12.8378C214.98 17.8475 218.501 23.0274 223.651 26.113L223.122 26.9994Z" fill="#392235"/>
<path d="M167.831 212.741C167.558 212.741 167.285 212.739 167.012 212.737C164.132 212.717 160.597 212.363 158.814 209.789C157.585 208.014 157.608 205.666 157.625 203.952C157.715 194.854 157.94 185.632 158.294 176.543C158.507 171.069 158.434 165.864 155.249 162.337C155.058 162.125 155.074 161.799 155.285 161.607C155.496 161.415 155.822 161.433 156.014 161.644C159.459 165.459 159.546 170.888 159.324 176.583C158.971 185.662 158.746 194.875 158.656 203.963C158.636 206.005 158.698 207.809 159.662 209.2C161.174 211.384 164.388 211.685 167.02 211.705C173.274 211.754 179.581 211.268 185.759 210.271C186.041 210.226 186.305 210.417 186.35 210.699C186.395 210.981 186.204 211.246 185.923 211.292C179.958 212.253 173.875 212.741 167.831 212.741Z" fill="white"/>
<path d="M158.962 177.168C158.86 177.168 158.756 177.138 158.667 177.074C158.434 176.91 158.377 176.588 158.541 176.355C160.952 172.913 162.368 168.704 162.531 164.502C162.542 164.217 162.778 163.983 163.066 164.006C163.35 164.017 163.572 164.257 163.561 164.542C163.391 168.94 161.908 173.345 159.385 176.948C159.285 177.091 159.125 177.168 158.962 177.168Z" fill="white"/>
<path d="M151.107 255.275C149.592 255.275 148.145 255.092 146.844 254.382C146.594 254.246 146.502 253.932 146.638 253.681C146.774 253.43 147.087 253.337 147.337 253.475C148.905 254.33 150.836 254.297 152.84 254.181C161.046 253.704 170.541 252.658 178.744 248.513C178.998 248.383 179.308 248.486 179.437 248.741C179.565 248.996 179.463 249.307 179.208 249.435C170.837 253.666 161.211 254.73 152.899 255.213C152.295 255.247 151.696 255.275 151.107 255.275Z" fill="white"/>
<path d="M191.691 117.26C187.005 117.26 182.297 115.802 178.494 113.081C178.262 112.916 178.208 112.593 178.374 112.361C178.539 112.128 178.861 112.075 179.093 112.24C183.896 115.676 190.21 117.001 195.986 115.785C196.267 115.726 196.538 115.905 196.596 116.184C196.655 116.463 196.476 116.737 196.198 116.796C194.719 117.107 193.205 117.26 191.691 117.26Z" fill="white"/>
<path d="M183.494 98.3761C183.47 98.3761 183.445 98.3745 183.421 98.3713C176.073 97.3264 169.054 93.9384 163.658 88.8315C163.45 88.6353 163.441 88.3086 163.636 88.1011C163.832 87.8932 164.158 87.8843 164.365 88.08C169.608 93.041 176.426 96.3326 183.566 97.3479C183.847 97.388 184.044 97.6498 184.004 97.9323C183.967 98.1901 183.746 98.3761 183.494 98.3761Z" fill="white"/>
<path d="M177.451 49.0707C177.348 49.0707 177.244 49.0403 177.154 48.9762C176.921 48.8121 176.865 48.4899 177.03 48.2564C177.811 47.1442 178.292 45.8144 178.757 44.5287C180.342 40.1465 181.98 35.6151 182.878 30.9759C183.878 25.807 183.802 21.1333 182.652 17.0847C182.575 16.8103 182.733 16.5241 183.007 16.4459C183.281 16.3689 183.566 16.527 183.644 16.8014C184.838 21.0077 184.921 25.8426 183.89 31.1725C182.977 35.8911 181.325 40.461 179.726 44.881C179.238 46.2302 178.734 47.6257 177.872 48.8514C177.772 48.9941 177.613 49.0707 177.451 49.0707Z" fill="white"/>
<path d="M207.868 42.5184C207.727 42.5184 207.587 42.4612 207.485 42.3481C205.684 40.3536 203.003 39.2917 200.619 38.5159C200.157 38.3651 199.691 38.22 199.225 38.0745C197.067 37.4009 194.836 36.7042 192.871 35.4712C192.63 35.3196 192.557 35.001 192.708 34.7591C192.859 34.5171 193.177 34.4442 193.419 34.5953C195.27 35.7574 197.437 36.4338 199.531 37.0876C200.002 37.2343 200.471 37.381 200.938 37.533C203.452 38.3509 206.286 39.4802 208.25 41.6547C208.441 41.8658 208.425 42.1929 208.214 42.3842C208.115 42.4742 207.991 42.5184 207.868 42.5184Z" fill="white"/>
<path d="M142.67 52.8458C142.518 52.8458 142.367 52.7789 142.266 52.65C142.088 52.4263 142.126 52.1012 142.349 51.9241C145.054 49.7776 146.174 46.4634 146.638 44.0611C147.143 41.4436 147.143 38.6984 147.142 36.0436C147.142 35.584 147.141 35.1248 147.144 34.6659C147.16 31.7051 147.271 28.2803 148.405 25.1026C149.384 22.3586 151.157 19.6876 153.825 16.9372C154.023 16.7325 154.349 16.7281 154.554 16.9267C154.758 17.1257 154.763 17.4527 154.564 17.6574C152.002 20.2997 150.305 22.8487 149.376 25.4508C148.297 28.4752 148.191 31.7959 148.176 34.6716C148.174 35.1284 148.174 35.5856 148.174 36.0432C148.174 38.7467 148.175 41.5425 147.65 44.2573C147.154 46.831 145.942 50.3908 142.99 52.7339C142.895 52.8093 142.782 52.8458 142.67 52.8458Z" fill="white"/>
<path d="M141.116 114.712C141.026 114.712 140.935 114.688 140.852 114.638C140.608 114.492 140.528 114.174 140.674 113.93C142.022 111.67 142.496 108.712 142.12 104.885C141.876 102.394 141.353 99.9273 140.565 97.5533C140.146 96.2884 139.641 95.021 139.153 93.7953C138.461 92.0585 137.746 90.2626 137.247 88.4136C136.53 85.7604 136.033 81.8994 137.729 78.5734C137.859 78.3192 138.17 78.2184 138.423 78.3485C138.677 78.4786 138.777 78.7898 138.647 79.044C137.101 82.0765 137.573 85.6664 138.242 88.1436C138.726 89.9351 139.43 91.7027 140.111 93.4123C140.605 94.6517 141.115 95.9333 141.544 97.2271C142.356 99.674 142.895 102.217 143.146 104.784C143.544 108.839 143.025 112.004 141.559 114.46C141.462 114.622 141.291 114.712 141.116 114.712Z" fill="white"/>
<path d="M193.719 242.699C193.557 242.699 193.397 242.623 193.297 242.479C193.133 242.246 193.19 241.924 193.423 241.76L199.889 237.212C201.714 235.928 203.602 234.6 205.709 233.679C209.139 232.18 212.872 231.858 216.482 231.546C216.767 231.516 217.015 231.732 217.04 232.016C217.065 232.301 216.854 232.552 216.571 232.575C213.043 232.88 209.396 233.196 206.121 234.627C204.11 235.505 202.265 236.802 200.482 238.057L194.016 242.605C193.925 242.669 193.821 242.699 193.719 242.699Z" fill="white"/>
<path d="M254.752 245.73C250.345 245.73 245.934 244.183 242.642 241.175C241.305 239.953 240.163 238.535 239.059 237.163C238.115 235.989 237.044 234.658 236.702 233.006C236.644 232.726 236.823 232.453 237.102 232.395C237.378 232.338 237.654 232.516 237.711 232.796C238.003 234.203 238.991 235.431 239.862 236.514C240.942 237.856 242.058 239.244 243.336 240.411C248.852 245.452 257.706 246.14 263.931 242.014C264.168 241.857 264.488 241.922 264.646 242.16C264.803 242.398 264.738 242.718 264.5 242.876C261.609 244.792 258.182 245.73 254.752 245.73Z" fill="white"/>
<path d="M222.959 107.552C222.765 107.552 222.58 107.442 222.492 107.255C222.371 106.997 222.481 106.689 222.739 106.568C230.173 103.058 238.053 100.592 246.159 99.2399C246.438 99.1916 246.706 99.3834 246.752 99.6647C246.799 99.9459 246.609 100.212 246.328 100.259C238.316 101.596 230.527 104.033 223.178 107.503C223.108 107.536 223.033 107.552 222.959 107.552Z" fill="white"/>
<path d="M238.016 116.28C237.855 116.28 237.697 116.205 237.596 116.064C237.43 115.832 237.484 115.509 237.716 115.343C241.916 112.334 247.263 110.992 252.383 111.659C252.666 111.696 252.865 111.956 252.828 112.239C252.792 112.522 252.529 112.723 252.251 112.684C247.386 112.05 242.307 113.326 238.316 116.184C238.225 116.248 238.12 116.28 238.016 116.28Z" fill="white"/>
<path d="M261.719 136.442C261.709 136.442 261.7 136.441 261.692 136.441C261.46 136.429 261.262 136.276 261.189 136.051C261.114 135.822 261.184 135.568 261.365 135.421C261.4 135.392 261.441 135.369 261.484 135.35C263.454 130.784 264.482 125.754 264.46 120.783C264.458 120.498 264.688 120.265 264.973 120.264C264.974 120.264 264.976 120.264 264.976 120.264C265.26 120.264 265.49 120.494 265.491 120.778C265.514 125.982 264.419 131.249 262.322 136.01C262.151 136.399 261.843 136.442 261.719 136.442Z" fill="white"/>
<path d="M265.198 145.344C265.125 145.344 265.052 145.329 264.981 145.295C264.723 145.175 264.611 144.867 264.732 144.609C266.581 140.631 267.371 136.217 267.015 131.843C266.992 131.559 267.204 131.31 267.488 131.286C267.768 131.261 268.02 131.475 268.044 131.759C268.414 136.311 267.592 140.906 265.667 145.045C265.579 145.233 265.393 145.344 265.198 145.344Z" fill="white"/>
<path d="M225.393 200.447C225.314 200.447 225.233 200.428 225.158 200.389C223.135 199.344 220.661 198.849 217.806 198.939C215.233 199.014 212.647 199.533 210.145 200.035C209.864 200.093 209.594 199.909 209.539 199.63C209.483 199.35 209.664 199.078 209.943 199.022C212.486 198.511 215.116 197.984 217.775 197.905C220.809 197.821 223.45 198.344 225.63 199.471C225.884 199.602 225.983 199.913 225.852 200.167C225.761 200.345 225.58 200.447 225.393 200.447Z" fill="white"/>
<path d="M133.502 144.623C133.47 144.623 133.437 144.62 133.404 144.614C133.124 144.559 132.941 144.289 132.995 144.008C133.629 140.724 135.495 137.651 138.114 135.578C138.337 135.401 138.662 135.439 138.838 135.663C139.015 135.887 138.977 136.212 138.753 136.389C136.325 138.311 134.595 141.159 134.008 144.204C133.96 144.451 133.744 144.623 133.502 144.623Z" fill="white"/>
<path d="M145.681 130.545C145.526 130.545 145.372 130.474 145.27 130.341C145.098 130.113 145.142 129.789 145.369 129.617C147.519 127.978 149.855 126.575 152.31 125.447C152.569 125.329 152.875 125.442 152.994 125.701C153.112 125.961 152.999 126.267 152.74 126.386C150.353 127.482 148.084 128.846 145.993 130.439C145.9 130.51 145.79 130.545 145.681 130.545Z" fill="white"/>
<path d="M144.774 139.655C144.656 139.655 144.536 139.614 144.438 139.529C144.222 139.343 144.198 139.017 144.384 138.801C146.243 136.637 148.603 134.885 151.209 133.734C151.469 133.62 151.774 133.737 151.889 133.998C152.004 134.259 151.886 134.564 151.626 134.679C149.159 135.769 146.925 137.428 145.166 139.475C145.063 139.594 144.919 139.655 144.774 139.655Z" fill="white"/>
<path d="M138.355 240.32C138.213 240.32 138.072 240.261 137.97 240.147C136.268 238.235 135.268 235.67 135.225 233.108C135.22 232.823 135.447 232.588 135.732 232.583C135.735 232.583 135.738 232.583 135.741 232.583C136.022 232.583 136.251 232.809 136.256 233.091C136.295 235.409 137.2 237.73 138.74 239.459C138.93 239.672 138.911 239.999 138.698 240.188C138.6 240.276 138.478 240.32 138.355 240.32Z" fill="white"/>
<path d="M148.162 250.649C148.139 250.649 148.117 250.647 148.094 250.645C145.388 250.289 142.897 248.831 141.259 246.645C141.088 246.416 141.134 246.093 141.361 245.921C141.59 245.75 141.913 245.795 142.083 246.024C143.535 247.961 145.832 249.305 148.228 249.62C148.51 249.657 148.709 249.917 148.672 250.2C148.638 250.46 148.416 250.649 148.162 250.649Z" fill="white"/>
<path d="M149.227 243.644C149.176 243.644 149.125 243.637 149.074 243.621C146.434 242.807 144.139 241.088 142.611 238.784C142.453 238.546 142.517 238.225 142.755 238.067C142.992 237.909 143.312 237.974 143.47 238.211C144.846 240.288 147 241.9 149.378 242.634C149.65 242.718 149.803 243.007 149.719 243.279C149.651 243.501 149.447 243.644 149.227 243.644Z" fill="white"/>
<path d="M251.277 238.264C248.582 238.264 245.904 236.623 244.857 234.086C244.748 233.822 244.874 233.52 245.137 233.411C245.4 233.302 245.702 233.427 245.811 233.691C246.899 236.329 250.226 237.862 252.931 236.971C253.202 236.882 253.493 237.029 253.582 237.3C253.671 237.572 253.524 237.863 253.253 237.953C252.61 238.164 251.942 238.264 251.277 238.264Z" fill="white"/>
<path d="M262.835 236.412C262.658 236.412 262.487 236.321 262.39 236.158C262.246 235.912 262.327 235.595 262.573 235.45C265.223 233.883 267.312 231.443 268.453 228.578C268.558 228.313 268.858 228.184 269.123 228.29C269.388 228.396 269.516 228.696 269.411 228.962C268.185 232.037 265.943 234.658 263.097 236.34C263.014 236.389 262.924 236.412 262.835 236.412Z" fill="white"/>
<path d="M255.987 233.037C255.019 233.037 254.055 232.862 253.162 232.497C252.898 232.39 252.772 232.089 252.879 231.824C252.986 231.56 253.287 231.431 253.551 231.54C255.912 232.502 258.85 231.944 260.696 230.181C260.901 229.985 261.228 229.992 261.425 230.198C261.621 230.405 261.614 230.732 261.407 230.929C259.975 232.297 257.973 233.037 255.987 233.037Z" fill="white"/>
<path d="M48.1586 199.331C47.6164 197.63 47.2137 195.887 46.8114 194.147C46.1757 191.396 45.5397 188.646 44.9041 185.895C44.8495 185.659 44.7896 185.412 44.6282 185.232C44.19 184.741 43.3896 185.043 42.8216 185.374C41.2124 186.31 39.5542 187.29 38.4662 188.803C37.0927 190.713 36.8243 193.248 37.2376 195.566C37.651 197.883 38.6796 200.039 39.721 202.149C42.3272 207.43 45.1417 212.715 49.2455 216.934C49.6712 217.371 50.1473 217.816 50.7472 217.926C51.251 218.018 51.7637 217.858 52.246 217.686C53.6677 217.178 56.3011 216.125 56.7396 214.463C57.1822 212.786 54.7572 211.073 53.8231 209.904C51.3152 206.764 49.3795 203.163 48.1586 199.331Z" fill="#EF9B6C"/>
<path d="M49.9539 216.693L55.8941 211.656C55.8941 211.656 81.025 228.14 110.954 211.656L119.111 229.885L78.2838 241.359L56.5797 226.508L49.9539 216.693Z" fill="#316F8F"/>
<path d="M135.678 214.524C126.868 217.357 117.005 219.352 108.588 215.503C108.314 215.376 108.029 215.231 107.879 214.97C107.673 214.606 107.8 214.15 107.923 213.751C108.358 212.35 108.684 210.922 108.903 209.483C109.548 205.266 109.277 200.932 108.17 196.79C107.378 193.824 107.183 193.188 109.897 191.519C112.406 189.981 115.103 188.69 117.793 187.512C119.801 186.633 121.888 185.825 124.075 185.692C126.261 185.554 128.588 186.172 130.085 187.776C131.223 188.995 131.734 190.565 131.97 192.237C132.179 193.679 132.186 195.207 132.217 196.653C132.361 202.749 133.536 208.82 135.678 214.524Z" fill="#FFBC91"/>
<path d="M131.97 192.237L131.908 192.495C130.932 196.334 127.947 199.332 124.777 201.701C122.111 203.697 115.055 207.986 108.903 209.483C109.547 205.266 109.277 200.932 108.17 196.791C107.378 193.824 107.183 193.188 109.897 191.519C112.406 189.981 115.103 188.69 117.793 187.512C119.801 186.633 121.888 185.826 124.074 185.692C126.261 185.555 128.588 186.173 130.085 187.776C131.223 188.996 131.734 190.565 131.97 192.237Z" fill="#EF9B6C"/>
<path d="M30.1242 223.742C32.3972 224.98 34.8278 226.084 36.5689 228.001C38.31 229.919 39.1598 232.959 37.7407 235.126C37.3698 235.693 36.8647 236.173 36.5756 236.785C36.0475 237.903 36.3487 239.267 37.003 240.316C37.6572 241.365 38.6199 242.175 39.5243 243.017C44.8285 247.954 48.6311 254.529 54.6727 258.526C56.3567 259.64 58.3362 260.556 60.3309 260.251C60.8759 260.168 61.4194 259.987 61.8445 259.635C62.7031 258.925 62.9039 257.675 62.7771 256.566C62.3675 252.984 59.3735 250.336 56.6043 248.033C53.8349 245.73 50.8729 243.019 50.5704 239.425C50.311 236.341 52.122 233.42 52.1835 230.324C52.2462 227.157 50.4987 224.287 49.1928 221.401C48.0031 218.773 47.1415 215.957 47.047 213.072C46.9679 210.659 47.425 208.242 47.2102 205.838C46.7456 200.64 43.0277 196.047 38.3128 193.83C33.5979 191.614 28.0542 191.583 23.0415 192.998C21.0998 193.546 19.1928 194.316 17.5843 195.535C13.6908 198.488 12.7306 203.233 13.4764 207.821C13.8358 210.031 15.4381 211.605 16.8985 213.241C18.6623 215.217 20.5845 217.051 22.6399 218.721C24.9752 220.618 27.4826 222.304 30.1242 223.742Z" fill="#7F7D7C"/>
<path d="M61.9334 160.984C61.9334 165.002 60.9087 169.051 58.8525 172.498C57.2454 175.191 55.0074 177.392 52.595 179.363C52.1187 179.754 51.6354 180.132 51.149 180.506C46.8173 183.82 38.3151 187.993 36.8552 193.631C34.9979 200.819 37.2835 208.892 32.7635 215.372C31.122 217.721 28.7609 219.469 26.3072 220.946C23.8603 222.415 21.1119 223.689 18.271 223.446C15.7418 223.229 13.4457 221.814 11.6124 220.056C8.7851 217.34 6.8934 213.813 5.09775 210.324C4.86135 209.867 4.62495 209.411 4.39522 208.951C3.19914 206.588 2.07861 204.181 1.32127 201.647C1.0129 200.616 0.769591 199.569 0.577502 198.511C0.13877 196.094 -0.0187398 193.621 0.00174971 191.156C0.00866493 190.558 0.0222422 189.971 0.049647 189.387C0.22432 185.311 0.916607 181.592 2.53759 178.134C3.97697 175.067 6.14963 172.2 9.34344 169.473C11.1939 167.89 13.3873 166.352 15.9815 164.851C18.1439 163.594 20.5873 162.361 23.3393 161.142C24.2544 160.737 25.4093 160.239 26.749 159.689C28.4351 158.996 30.4057 158.227 32.5407 157.464C44.6274 153.134 61.9334 149.037 61.9334 160.984Z" fill="#969594"/>
<path d="M19.5487 168.879C21.2381 170.785 23.0169 172.904 23.1436 175.448C21.4712 176.025 19.8125 174.693 18.4075 173.615C15.7515 171.568 12.6228 170.15 9.34317 169.473C11.1936 167.89 13.387 166.352 15.9813 164.851C17.1704 166.197 18.3596 167.536 19.5487 168.879Z" fill="#E2E2E2"/>
<path d="M35.2376 168.783C35.0457 169.782 34.2128 170.733 33.1986 170.692C31.9306 170.64 31.2316 169.229 30.8236 168.024C29.8504 165.146 28.9388 162.124 26.9101 159.865C26.8586 159.806 26.8038 159.748 26.749 159.689C28.4351 158.996 30.4056 158.227 32.5407 157.464C33.3495 160.301 34.052 163.168 34.8437 165.795C35.1379 166.767 35.4258 167.787 35.2376 168.783Z" fill="#E2E2E2"/>
<path d="M33.5531 173.433C34.7794 176.316 35.9872 179.207 37.1953 182.098C37.4282 182.656 37.6707 183.228 38.0943 183.658C38.5179 184.087 39.1713 184.347 39.7366 184.137C39.9771 184.047 40.2132 183.876 40.4642 183.93C40.7103 183.983 40.8576 184.23 40.9706 184.455C42.0565 186.621 42.7326 189.082 42.3431 191.474C41.9535 193.867 40.331 196.148 38.0098 196.831C37.8044 196.891 37.5903 196.94 37.3777 196.914C37.0775 196.878 36.814 196.699 36.5866 196.499C35.2967 195.366 34.8805 193.558 34.534 191.874C33.5313 187.003 32.5286 182.132 31.5259 177.261C31.2065 175.709 29.6803 171.937 30.3967 170.498C31.5561 168.169 33.1855 172.569 33.5531 173.433Z" fill="#7F7D7C"/>
<path d="M25.755 232.142C28.0281 233.38 30.4587 234.483 32.1998 236.401C33.9409 238.318 34.7907 241.358 33.3715 243.526C33.0006 244.092 32.4956 244.572 32.2064 245.184C31.678 246.302 31.9795 247.666 32.6336 248.715C33.288 249.764 34.2505 250.575 35.1549 251.416C40.4591 256.353 44.2617 262.929 50.3033 266.925C51.9873 268.039 53.9668 268.955 55.9615 268.65C56.5065 268.567 57.05 268.386 57.4751 268.035C58.3337 267.324 58.5344 266.074 58.4079 264.966C57.9984 261.383 55.0044 258.735 52.2352 256.432C49.4658 254.129 46.5038 251.418 46.2013 247.825C45.9418 244.74 47.7528 241.819 47.8143 238.724C47.8771 235.556 46.1296 232.686 44.8236 229.801C43.6339 227.172 42.7724 224.356 42.6778 221.471C42.5987 219.058 43.0559 216.642 42.841 214.237C42.3764 209.039 38.6586 204.446 33.9437 202.23C29.2288 200.013 23.6851 199.982 18.6723 201.397C16.7307 201.946 14.8236 202.715 13.2152 203.935C9.32167 206.887 8.36148 211.632 9.1073 216.22C9.46663 218.43 11.0689 220.004 12.5293 221.641C14.2932 223.617 16.2154 225.451 18.2707 227.121C20.606 229.018 23.1134 230.703 25.755 232.142Z" fill="#969594"/>
<path d="M62.943 192.498C63.2209 196.306 63.496 200.165 62.7809 203.915C62.3429 206.212 61.1415 208.79 58.839 209.172C57.1606 209.451 55.4915 208.369 54.5613 206.941C53.631 205.514 53.2863 203.794 52.96 202.121C52.1335 197.883 51.307 193.645 50.4805 189.407C49.8336 186.089 49.1843 182.688 49.7145 179.35C50.2446 176.011 52.204 172.691 55.3609 171.499C57.0743 170.852 59.2173 170.971 60.4835 172.296C62.2722 174.168 61.9165 178.435 62.0927 180.853C62.3762 184.735 62.6598 188.617 62.943 192.498Z" fill="#7F7D7C"/>
<path d="M143.238 172.371C142.138 180.507 138.142 188.288 131.905 193.611C125.671 198.937 117.2 201.667 109.078 200.589C105.367 200.094 101.597 198.724 99.1573 195.884C97.67 194.153 96.772 191.993 96.1243 189.806C93.8351 182.117 94.3937 173.67 97.3478 166.211C97.7248 165.26 98.1635 164.277 98.6568 163.282C101.343 157.88 105.692 152.039 110.936 148.313C115.963 144.738 121.803 143.106 127.779 145.668C132.933 147.877 136.816 152.323 139.794 157.087C141.12 159.205 142.313 161.438 142.944 163.855C143.663 166.623 143.618 169.538 143.238 172.371Z" fill="#FFBC91"/>
<path d="M43.3719 198.28C43.7267 203.665 43.731 209.134 45.144 214.342C45.4324 215.405 45.8322 216.527 46.734 217.157C47.4476 217.655 48.3837 217.759 49.2355 217.584C51.149 217.191 52.5953 215.515 53.2653 213.676C53.9353 211.838 53.9637 209.837 53.9847 207.88C54.0851 198.423 54.1858 188.965 54.2862 179.508C54.3126 177.021 54.2821 174.345 52.8325 172.327C51.0227 169.807 47.318 169.128 44.4563 170.318C40.255 172.063 36.228 178.547 38.8745 182.91C40.1643 185.036 41.3506 186.374 42.0265 188.939C42.8295 191.987 43.165 195.142 43.3719 198.28Z" fill="#969594"/>
<path d="M19.2575 187.364C19.1287 186.916 19.036 186.406 19.0089 185.902C18.9356 184.551 20.764 184.057 21.3977 185.252L24.3077 190.744C22.2452 184.974 20.7249 179.009 19.7744 172.954C19.6425 172.115 20.1885 171.271 21.0276 171.146C21.9624 171.007 22.4365 171.894 22.7502 172.657C24.4504 176.795 25.9515 181.016 27.2464 185.298C25.5916 180.163 24.5546 174.829 24.1625 169.447C24.0831 168.357 25.5409 167.916 26.0829 168.865C26.2829 169.215 26.4547 169.585 26.6071 169.942C28.5139 174.411 30.1585 178.992 31.5295 183.653C30.5588 179.517 29.5881 175.38 28.6172 171.242C28.5099 170.786 28.4369 170.272 28.4238 169.764C28.3813 168.127 30.6461 167.62 31.3325 169.107C31.9436 170.431 32.2876 171.917 32.6551 173.341C34.0456 178.726 36.156 183.924 38.9119 188.753C39.0794 189.046 39.4093 189.086 39.6431 188.843C40.2109 188.253 40.9145 187.523 41.3471 187.275C41.9891 186.908 42.1029 188.051 42.2606 189.068C42.391 189.908 42.3367 190.762 42.1254 191.586C40.3751 198.412 44.6769 205.083 46.9896 211.724C47.2639 212.512 47.5067 213.402 47.1489 214.155C46.9732 214.525 46.6707 214.817 46.3701 215.094C43.7466 217.514 39.659 221.116 35.9942 221.659C32.0364 222.244 30.6239 218.173 29.3174 215.195C25.3516 206.156 21.9875 196.851 19.2575 187.364Z" fill="#FFBC91"/>
<path d="M135.929 176.801C135.582 179.057 134.53 181.2 132.957 182.849C131.816 181.915 131.998 180.167 132.077 178.693C132.285 174.813 130.846 170.675 127.673 168.443C126.456 167.588 125.041 167.045 123.602 166.671C116.21 164.751 108.06 167.138 100.905 164.463C100.01 164.129 99.2702 163.734 98.6566 163.281C101.343 157.88 105.692 152.038 110.935 148.312C115.641 149.322 120.144 151.643 124.002 154.579C129.588 158.831 134.287 164.675 135.699 171.561C136.055 173.285 136.196 175.064 135.929 176.801Z" fill="#EF9B6C"/>
<path d="M73.0766 172.419C72.0143 174.318 70.5065 176.028 68.5531 176.983C65.4586 178.497 60.8459 178.326 57.1893 176.801C55.3284 176.293 53.5911 175.321 52.2065 173.971C51.6344 173.412 51.1237 172.79 50.678 172.127C49.8282 170.857 49.2148 169.425 48.8342 167.928C48.5394 166.76 48.3888 165.558 48.375 164.36C48.375 164.209 48.3717 164.051 48.3717 163.893C48.3614 163.051 48.3578 162.131 48.4024 161.142C48.4605 159.964 48.5909 158.683 48.8788 157.31C49.1082 156.214 49.4407 155.057 49.9171 153.852C50.4278 152.55 51.1029 151.19 52.0006 149.775C52.0931 149.635 52.8437 146.908 54.4235 144.398C56.2844 141.448 56.9834 139.367 59.05 137.54C59.78 136.891 60.9348 137.413 60.9279 138.391C60.9246 138.827 60.9177 139.274 60.9074 139.734C60.8388 142.739 60.6436 146.163 60.2735 149.04C60.2563 149.157 60.2428 149.274 60.2256 149.391C61.8535 148.189 63.8274 147.887 65.4517 147.924C65.6197 144.157 65.7806 142.162 65.9727 138.082C65.9967 137.612 66.1612 137.138 66.6171 137.018C67.1004 136.891 67.3949 137.275 67.6246 137.622C70.38 141.794 72.1139 146.558 73.4813 151.369C75.4481 158.302 76.596 166.128 73.0766 172.419Z" fill="#969594"/>
<path d="M98.8932 149.82C96.9646 143.257 99.5752 135.78 104.734 131.3C106.216 130.013 107.912 128.934 109.797 128.395C113.639 127.295 117.877 128.595 121.05 131.027C124.223 133.459 126.474 136.901 128.328 140.447C128.114 139.252 127.899 138.025 128.129 136.832C128.358 135.64 129.133 134.473 130.299 134.143C132.242 133.592 133.967 135.458 135.07 137.152C140.965 146.202 144.846 156.56 146.353 167.261C146.83 166.593 147.343 165.896 148.093 165.562C148.842 165.229 149.894 165.429 150.209 166.188C150.396 166.64 150.282 167.158 150.116 167.619C149.599 169.055 148.585 170.305 147.289 171.108C149.41 170.329 151.859 170.504 153.847 171.576C151.713 173.415 149.147 174.748 146.417 175.436C148.291 177.249 148.292 180.391 147.091 182.708C145.891 185.025 143.967 182.735 140.027 182.999C137.427 183.173 133.246 185.701 131.739 187.831C130.587 189.46 127.986 189.377 129.166 186.407C130.346 183.437 132.109 180.629 132.495 177.456C133.048 172.911 130.546 168.359 126.902 165.596C117.856 158.736 102.867 163.339 98.8932 149.82Z" fill="#725846"/>
<path d="M141.942 182.748C143.049 182.693 144.239 182.794 145.114 183.476C146.523 184.575 146.534 186.839 145.567 188.343C144.599 189.848 142.93 190.737 141.278 191.416C140.255 191.837 139.209 192.204 138.144 192.501C136.537 192.95 134.723 193.219 133.273 192.391C132.157 191.755 131.431 190.486 131.446 189.2C131.494 185.058 138.717 182.91 141.942 182.748Z" fill="#FFBC91"/>
<path d="M27.1076 219.926C27.1076 219.926 44.0181 213.906 47.3287 209.576C47.3287 209.576 61.3771 227.85 78.512 225.82C95.6469 223.791 107.923 213.752 107.923 213.752C107.923 213.752 129.254 213.35 133.012 204.72C133.012 204.72 158.816 233.263 153.847 267.446C153.847 267.446 141.205 267.746 119.111 275.53C97.0176 283.314 77.8266 270.214 77.8266 270.214L82.6242 259.218C82.6242 259.218 38.9877 259.559 27.1076 219.926Z" fill="#4492B9"/>
<path d="M61.2078 159.895C61.2173 161.19 60.3117 162.247 59.185 162.255C58.0583 162.263 57.1373 161.22 57.1279 159.925C57.1184 158.63 58.024 157.573 59.1507 157.565C60.2776 157.557 61.1984 158.6 61.2078 159.895Z" fill="#201600"/>
<path d="M61.269 166.033C61.2603 166.035 61.2516 166.037 61.2424 166.037L54.7762 166.399C54.6952 166.403 54.6261 166.341 54.6215 166.26C54.6168 166.18 54.6783 166.109 54.7598 166.106L61.226 165.744C61.3069 165.739 61.3761 165.801 61.3804 165.882C61.3845 165.954 61.3364 166.017 61.269 166.033Z" fill="#EFEFEF"/>
<path d="M55.5674 169.548C55.4933 169.566 55.4173 169.525 55.3935 169.451C55.3686 169.374 55.4109 169.291 55.488 169.266L61.7014 167.253C61.7808 167.227 61.861 167.271 61.8861 167.348C61.9109 167.425 61.8687 167.508 61.7916 167.533L55.5781 169.546C55.5743 169.547 55.5707 169.548 55.5674 169.548Z" fill="#EFEFEF"/>
<path d="M57.332 172.199C57.2756 172.213 57.2139 172.192 57.178 172.142C57.1309 172.076 57.146 171.984 57.2121 171.937L62.0917 168.441C62.157 168.394 62.2489 168.409 62.2963 168.475C62.3435 168.541 62.3283 168.633 62.2623 168.68L57.3827 172.176C57.3671 172.187 57.3496 172.195 57.332 172.199Z" fill="#EFEFEF"/>
<path d="M74.7097 162.89C74.7184 162.888 74.7268 162.885 74.735 162.881L80.6457 160.229C80.7195 160.196 80.7528 160.109 80.7197 160.035C80.6867 159.961 80.6001 159.927 80.5259 159.961L74.6151 162.613C74.5414 162.646 74.5081 162.733 74.5411 162.807C74.5706 162.873 74.6423 162.906 74.7097 162.89Z" fill="#EFEFEF"/>
<path d="M81.3854 163.391C81.4591 163.373 81.5078 163.3 81.4953 163.224C81.4819 163.144 81.4066 163.09 81.3267 163.103L74.8846 164.172C74.8021 164.185 74.7506 164.261 74.7639 164.341C74.7773 164.421 74.8526 164.475 74.9325 164.462L81.3746 163.393C81.3782 163.392 81.3818 163.391 81.3854 163.391Z" fill="#EFEFEF"/>
<path d="M81.0314 166.557C81.0877 166.544 81.1331 166.497 81.1418 166.435C81.1533 166.355 81.098 166.281 81.0178 166.269L75.0815 165.407C75.0018 165.395 74.9271 165.451 74.9153 165.531C74.9038 165.611 74.9591 165.686 75.0392 165.698L80.9756 166.56C80.9948 166.562 81.0137 166.561 81.0314 166.557Z" fill="#EFEFEF"/>
<path d="M60.8044 158.736C60.8075 159.147 60.5201 159.483 60.1628 159.485C59.8056 159.488 59.5133 159.157 59.5102 158.746C59.5072 158.335 59.7945 158 60.1518 157.997C60.5094 157.995 60.8013 158.326 60.8044 158.736Z" fill="white"/>
<path d="M73.5438 158.643C73.5533 159.938 72.6476 160.995 71.521 161.003C70.3943 161.011 69.4733 159.968 69.4641 158.673C69.4546 157.378 70.3602 156.321 71.4869 156.313C72.6133 156.305 73.5343 157.348 73.5438 158.643Z" fill="#201600"/>
<path d="M73.1404 157.485C73.1435 157.896 72.8561 158.231 72.4988 158.233C72.1415 158.236 71.8493 157.905 71.8462 157.494C71.8431 157.083 72.1305 156.748 72.4878 156.746C72.8451 156.743 73.1373 157.074 73.1404 157.485Z" fill="white"/>
<path d="M66.6171 166.638C65.4292 166.927 64.0162 166.639 63.9347 166.622C63.8556 166.605 63.8046 166.528 63.8213 166.448C63.8377 166.369 63.915 166.318 63.9947 166.335C64.0208 166.34 66.6007 166.865 67.5775 165.807C67.9822 165.369 68.0572 164.701 67.8014 163.822C67.7786 163.744 67.8234 163.662 67.901 163.64C67.9781 163.617 68.06 163.661 68.0828 163.739C68.3697 164.725 68.2721 165.488 67.7926 166.007C67.4914 166.333 67.0706 166.528 66.6171 166.638Z" fill="#48443E"/>
<path d="M70.1838 165.85C69.8562 165.929 69.5268 165.945 69.2169 165.857C68.5502 165.668 68.0892 165.04 67.8472 163.99C67.829 163.911 67.8774 163.833 67.9555 163.814C67.9561 163.814 67.9566 163.814 67.9573 163.814C68.0362 163.795 68.1149 163.845 68.1333 163.924C68.3492 164.861 68.7408 165.416 69.2966 165.574C70.61 165.947 72.4712 164.076 72.4899 164.057C72.5467 163.999 72.6395 163.998 72.6973 164.055C72.755 164.112 72.7557 164.205 72.6989 164.263C72.6343 164.328 71.4206 165.548 70.1838 165.85Z" fill="#48443E"/>
<path d="M66.1434 163.246C65.465 162.452 68.8104 161.438 69.2261 162.068C69.5762 162.599 67.9386 165.385 66.1434 163.246Z" fill="#6B6966"/>
<path d="M60.9074 139.734C60.8387 142.739 60.6436 146.163 60.2735 149.04C59.917 149.514 59.4237 149.6 58.8582 149.748C58.0493 149.957 57.2577 150.362 56.4798 150.668C56.2778 150.747 56.0619 150.829 55.8526 150.771C55.7087 150.733 55.5921 150.637 55.4928 150.527C55.1124 150.105 54.9857 149.497 55.0405 148.93C55.0953 148.364 55.3112 147.825 55.5407 147.306C56.5961 144.919 58.0012 142.704 59.5228 140.589C59.7215 140.314 59.9341 140.029 60.2253 139.858C60.4277 139.737 60.6812 139.683 60.9074 139.734Z" fill="#C8C7C7"/>
<path d="M69.7942 148.544C69.5406 148.473 69.2758 148.422 69.0497 148.286C68.7141 148.085 68.5092 147.723 68.3563 147.362C67.8323 146.127 67.7465 144.756 67.7063 143.415C67.6692 142.173 67.6648 140.929 67.6935 139.687C67.6994 139.427 67.7821 139.084 68.0418 139.075C68.2255 139.068 68.3558 139.246 68.4496 139.404C70.081 142.169 71.2466 145.232 71.6567 148.418C71.8478 149.902 70.4803 148.738 69.7942 148.544Z" fill="#C8C7C7"/>
<path d="M52.3194 168.614C52.4221 168.913 52.3571 169.243 52.268 169.548C51.9801 170.531 51.4215 171.43 50.678 172.127C49.8282 170.857 49.2148 169.425 48.8342 167.928C49.2488 167.945 49.6668 167.924 50.0817 167.883C50.5033 167.842 50.9351 167.783 51.3531 167.869C51.7711 167.952 52.1858 168.209 52.3194 168.614Z" fill="#E2E2E2"/>
<path d="M52.6074 162.402C52.5971 162.77 52.2063 162.993 51.8636 163.12C51.0719 163.419 50.2529 163.632 49.4166 163.752C49.0704 163.803 48.7174 163.837 48.3714 163.893C48.3612 163.051 48.3576 162.131 48.4021 161.142C49.5329 161.496 50.9208 161.2 52.0347 161.715C52.3228 161.849 52.6143 162.086 52.6074 162.402Z" fill="#E2E2E2"/>
<path d="M55.8183 158.824C55.7496 158.961 55.6195 159.054 55.4892 159.129C54.3412 159.778 52.8814 159.428 51.7024 158.831C50.7497 158.35 49.8586 157.711 48.8787 157.31C49.1082 156.214 49.4407 155.057 49.917 153.851C50.3214 154.143 50.7704 154.377 51.2194 154.58C52.1788 155.012 53.1933 155.335 54.081 155.898C54.9721 156.461 55.743 157.33 55.8664 158.378C55.8869 158.528 55.8869 158.69 55.8183 158.824Z" fill="#E2E2E2"/>
<path d="M17.2632 234.884C17.5572 239.037 15.8422 243.025 14.5944 246.996C13.3466 250.967 12.6028 255.507 14.6605 259.123C15.9321 261.358 18.1074 262.92 19.6776 264.955C20.9833 266.647 21.8587 268.67 22.1986 270.782C22.5362 272.879 22.614 275.476 24.5088 276.428C25.6529 277.003 27.0818 276.67 28.1334 275.939C30.2845 274.443 31.099 271.504 30.6252 268.924C30.1514 266.343 28.5962 264.084 26.8085 262.167C25.2877 260.537 23.533 259.033 22.6199 256.997C21.117 253.646 22.2442 249.761 23.3599 246.261C24.693 242.079 26.0048 237.723 25.438 233.369C24.9503 229.623 23.1104 226.209 21.2935 222.899C18.8796 218.502 16.4482 214.114 14.0166 209.726C13.2014 208.255 12.3421 206.733 10.9721 205.761C8.22731 203.812 4.65162 205.715 4.94846 209.151C5.15771 211.572 7.33551 215.21 8.46755 217.36C11.4777 223.077 16.784 228.113 17.2632 234.884Z" fill="#969594"/>
<path d="M11.5228 200.036C11.982 201.241 11.0738 202.502 10.1966 203.442C8.37685 205.397 6.43726 207.234 4.39471 208.951C3.19863 206.588 2.07811 204.181 1.32076 201.646C1.0124 200.616 0.769085 199.569 0.576996 198.511C2.85927 198.693 5.15539 198.717 7.44458 198.583C8.99384 198.494 10.9711 198.583 11.5228 200.036Z" fill="#E2E2E2"/>
<path d="M15.5976 183.951C15.8924 184.796 15.351 185.747 14.5901 186.221C13.8327 186.691 12.911 186.801 12.0266 186.914C7.97938 187.433 3.97315 188.261 0.049408 189.387C0.224081 185.311 0.916368 181.592 2.53735 178.134C2.73942 178.233 2.93844 178.326 3.14052 178.412C6.91366 180.009 11.2556 180.369 14.5762 182.777C15.0011 183.086 15.4263 183.453 15.5976 183.951Z" fill="#E2E2E2"/>
<path d="M111.56 160.647C111.536 160.647 111.511 160.645 111.486 160.639C108.742 160.031 106.387 159.074 104.488 157.794C102.238 156.278 100.523 154.209 99.6598 151.966C99.5916 151.789 99.6795 151.59 99.8562 151.522C100.032 151.453 100.231 151.542 100.299 151.719C101.113 153.831 102.736 155.786 104.87 157.224C106.698 158.456 108.974 159.379 111.634 159.969C111.819 160.01 111.935 160.193 111.895 160.378C111.859 160.538 111.718 160.647 111.56 160.647Z" fill="white"/>
<path d="M133.882 185.807C133.762 185.807 133.645 185.744 133.582 185.632C133.49 185.467 133.548 185.257 133.713 185.164C136.243 183.74 139.108 182.851 141.999 182.595C142.185 182.577 142.353 182.718 142.37 182.907C142.387 183.095 142.247 183.262 142.059 183.279C139.265 183.527 136.495 184.386 134.049 185.763C133.996 185.794 133.938 185.807 133.882 185.807Z" fill="white"/>
<path d="M111.881 201.094C107.815 201.094 103.743 199.876 100.371 197.599C100.214 197.493 100.172 197.28 100.278 197.123C100.384 196.965 100.596 196.924 100.753 197.03C104.806 199.765 109.902 200.919 114.736 200.196C114.921 200.171 115.098 200.298 115.126 200.485C115.153 200.672 115.024 200.847 114.837 200.875C113.859 201.022 112.87 201.094 111.881 201.094Z" fill="white"/>
<path d="M122.64 212.314C122.501 212.314 122.371 212.229 122.319 212.091C122.253 211.913 122.343 211.715 122.52 211.649C124.482 210.916 126.51 210.157 128.343 209.096C130.381 207.916 131.909 206.501 132.884 204.892C132.982 204.73 133.193 204.677 133.354 204.776C133.516 204.875 133.568 205.086 133.469 205.248C132.435 206.957 130.825 208.452 128.685 209.691C126.803 210.781 124.748 211.549 122.76 212.292C122.721 212.307 122.68 212.314 122.64 212.314Z" fill="white"/>
<path d="M36.4132 216.698C36.2759 216.698 36.1466 216.615 36.0938 216.479C36.0252 216.302 36.1122 216.104 36.2885 216.034C38.7439 215.074 41.1422 213.909 43.4165 212.57C43.5799 212.474 43.7894 212.529 43.8855 212.692C43.9812 212.856 43.9267 213.066 43.7635 213.162C41.458 214.519 39.0269 215.701 36.5374 216.674C36.4967 216.69 36.4544 216.698 36.4132 216.698Z" fill="white"/>
<path d="M75.0331 225.871C75.0265 225.871 75.0201 225.871 75.0134 225.87C72.9002 225.751 70.5049 225.616 68.2221 224.941C66.5318 224.442 64.9126 223.641 63.5272 222.928C59.7986 221.012 55.5194 218.584 52.0533 215.109C51.9194 214.975 51.9194 214.758 52.0533 214.624C52.1873 214.489 52.404 214.489 52.5379 214.624C55.9369 218.031 60.1585 220.425 63.8399 222.317C65.1974 223.015 66.7825 223.8 68.4158 224.283C70.6227 224.934 72.9757 225.068 75.0518 225.185C75.2408 225.195 75.3853 225.358 75.3748 225.547C75.3645 225.73 75.2134 225.871 75.0331 225.871Z" fill="white"/>
<path d="M21.5657 180.841C21.4197 180.841 21.2845 180.746 21.2386 180.6C20.5443 178.367 19.9893 176.066 19.5892 173.76C19.519 173.355 19.423 172.8 19.5377 172.266C19.672 171.643 20.0992 171.15 20.6262 171.011C20.8086 170.964 20.9966 171.073 21.0445 171.256C21.0924 171.44 20.983 171.627 20.7999 171.676C20.4821 171.759 20.2736 172.105 20.2078 172.411C20.1276 172.784 20.186 173.189 20.2646 173.642C20.6595 175.919 21.2074 178.191 21.893 180.395C21.9494 180.576 21.8485 180.768 21.6679 180.825C21.6341 180.836 21.5995 180.841 21.5657 180.841Z" fill="white"/>
<path d="M122.432 179.552C122.481 179.547 122.53 179.538 122.578 179.523C122.972 179.404 123.196 178.987 123.076 178.591C123.038 178.463 122.098 175.433 119.462 174.381C117.802 173.719 115.896 173.993 113.795 175.197C113.437 175.402 113.313 175.859 113.518 176.217C113.722 176.576 114.178 176.7 114.535 176.495C116.222 175.529 117.694 175.285 118.91 175.77C120.885 176.559 121.641 178.999 121.648 179.024C121.753 179.37 122.086 179.585 122.432 179.552Z" fill="#201600"/>
<path d="M106.293 173.822C106.342 173.818 106.391 173.808 106.439 173.794C106.833 173.674 107.056 173.257 106.937 172.862C106.899 172.734 105.959 169.704 103.323 168.652C101.663 167.989 99.7566 168.264 97.6556 169.468C97.2981 169.673 97.1741 170.13 97.3785 170.488C97.5829 170.846 98.0391 170.97 98.3963 170.766C100.083 169.799 101.554 169.555 102.771 170.041C104.746 170.829 105.502 173.27 105.509 173.294C105.614 173.641 105.947 173.855 106.293 173.822Z" fill="#201600"/>
<path d="M126.67 174.143C126.836 174.118 126.998 174.051 127.139 173.939C127.563 173.6 127.636 172.983 127.3 172.556C127.165 172.384 123.905 168.348 117.861 169.336C117.323 169.423 116.958 169.931 117.045 170.469C117.132 171.008 117.639 171.375 118.176 171.287C123.052 170.508 125.647 173.649 125.755 173.783C125.982 174.067 126.335 174.192 126.67 174.143Z" fill="#725846"/>
<path d="M108.343 167.42C108.509 167.394 108.67 167.325 108.81 167.211C109.23 166.867 109.295 166.249 108.954 165.826C108.817 165.656 105.508 161.659 99.4766 162.721C98.94 162.814 98.5812 163.326 98.6749 163.864C98.7684 164.401 99.2799 164.762 99.8157 164.667C104.681 163.829 107.314 166.939 107.424 167.072C107.654 167.353 108.008 167.474 108.343 167.42Z" fill="#725846"/>
<path d="M108.294 182.183C108.997 182.117 109.694 181.989 110.378 181.803C110.617 181.738 110.757 181.492 110.693 181.253C110.628 181.014 110.381 180.872 110.143 180.938C109.023 181.243 107.867 181.376 106.707 181.335C106.414 181.325 106.239 181.243 106.211 181.201C106.214 181.174 106.26 181.091 106.353 180.961C107.161 179.827 107.631 179.135 108.087 178.466C108.539 177.801 109.007 177.114 109.808 175.988C109.952 175.787 109.905 175.507 109.704 175.363C109.503 175.218 109.224 175.265 109.08 175.467C108.272 176.6 107.802 177.292 107.347 177.961C106.895 178.626 106.427 179.314 105.625 180.44C105.498 180.618 105.285 180.916 105.323 181.297C105.378 181.846 105.896 182.204 106.675 182.231C107.216 182.251 107.757 182.234 108.294 182.183Z" fill="#EF9B6C"/>
<path d="M106.326 181.746C106.483 181.749 106.616 181.628 106.627 181.469C106.667 180.937 106.881 180.385 107.264 179.827C107.616 179.313 108.069 178.854 108.507 178.41C108.622 178.293 108.621 178.103 108.504 177.987C108.387 177.871 108.198 177.872 108.082 177.99C107.626 178.452 107.155 178.931 106.772 179.487C106.328 180.134 106.079 180.786 106.032 181.425C106.02 181.59 106.143 181.733 106.308 181.745C106.314 181.746 106.32 181.746 106.326 181.746Z" fill="white"/>
<path d="M101.225 188.625C101.11 188.436 101.126 188.187 101.281 188.014C101.47 187.802 101.795 187.783 102.007 187.973C102.689 188.582 104.752 190.114 106.088 189.878C106.5 189.804 106.814 189.558 107.046 189.124C107.18 188.874 107.492 188.779 107.742 188.914C107.993 189.048 108.087 189.36 107.952 189.611C107.572 190.322 106.989 190.765 106.266 190.892C104.201 191.257 101.61 188.999 101.322 188.741C101.283 188.706 101.251 188.667 101.225 188.625Z" fill="#D37967"/>
<path d="M25.1303 175.444C24.9997 175.444 24.875 175.369 24.8176 175.242C23.9384 173.29 23.6418 171.05 23.9819 168.936C24.0121 168.749 24.1888 168.621 24.3748 168.652C24.5617 168.682 24.6888 168.858 24.6586 169.045C24.3397 171.028 24.6178 173.128 25.4425 174.959C25.5204 175.132 25.4436 175.336 25.2709 175.413C25.2254 175.434 25.1775 175.444 25.1303 175.444Z" fill="white"/>
<path d="M25.2766 204.355C25.1529 204.355 25.0333 204.287 24.9723 204.17C24.4686 203.199 24.0903 202.163 23.7243 201.16L19.0447 188.339C18.7643 187.571 18.4464 186.701 18.5028 185.787C18.5145 185.598 18.6751 185.457 18.866 185.466C19.055 185.478 19.1986 185.64 19.1869 185.83C19.1395 186.6 19.4312 187.399 19.6883 188.103L24.3679 200.924C24.7262 201.906 25.0971 202.921 25.5804 203.853C25.6677 204.021 25.6024 204.229 25.4344 204.316C25.3839 204.342 25.3299 204.355 25.2766 204.355Z" fill="white"/>
<path d="M67.0709 257.175C67.0532 257.175 67.035 257.174 67.0171 257.171C62.692 256.488 58.7007 254.786 54.038 252.439C49.9783 250.396 45.3666 247.891 42.0206 244.005C41.8972 243.862 41.9131 243.645 42.0562 243.521C42.1994 243.397 42.4158 243.413 42.5395 243.556C45.803 247.347 50.3445 249.812 54.3453 251.825C58.9506 254.143 62.8862 255.823 67.1236 256.492C67.3106 256.521 67.4382 256.697 67.4087 256.884C67.3823 257.054 67.2366 257.175 67.0709 257.175Z" fill="white"/>
<path d="M82.5881 259.849C82.4324 259.849 82.2916 259.742 82.2549 259.584C82.2119 259.399 82.3264 259.215 82.5108 259.172C86.7378 258.183 90.9919 257.06 95.1552 255.833C96.249 255.511 97.5191 255.129 98.7469 254.68C103.161 253.067 107.225 250.535 111.155 248.086C111.316 247.986 111.527 248.036 111.627 248.197C111.727 248.358 111.678 248.57 111.517 248.67C107.557 251.137 103.463 253.688 98.9818 255.326C97.735 255.781 96.4526 256.166 95.3488 256.492C91.1733 257.723 86.9063 258.85 82.6668 259.84C82.6401 259.846 82.614 259.849 82.5881 259.849Z" fill="white"/>
<path d="M104.962 253.289C104.487 253.289 104.014 253.282 103.547 253.275C103.357 253.272 103.206 253.116 103.209 252.926C103.212 252.738 103.365 252.588 103.551 252.588C103.553 252.588 103.555 252.588 103.557 252.588C104.993 252.61 106.478 252.633 107.915 252.44C109.502 252.228 110.848 251.767 111.916 251.071C112.075 250.967 112.287 251.013 112.391 251.172C112.494 251.331 112.449 251.544 112.29 251.647C111.136 252.399 109.695 252.895 108.006 253.121C106.994 253.256 105.972 253.289 104.962 253.289Z" fill="white"/>
<path d="M67.201 250.701C67.1754 250.701 67.1496 250.698 67.1237 250.692C65.2545 250.26 63.4699 249.404 61.9629 248.216C61.8141 248.099 61.7885 247.883 61.9053 247.734C62.0228 247.585 62.2382 247.56 62.3865 247.676C63.8149 248.802 65.5063 249.613 67.2776 250.023C67.4623 250.065 67.577 250.25 67.5345 250.435C67.4979 250.594 67.357 250.701 67.201 250.701Z" fill="white"/>
<path d="M75.6773 252.781C75.6499 252.781 75.6225 252.778 75.5948 252.771C73.9749 252.37 72.3219 252.023 70.682 251.738C70.4955 251.705 70.3705 251.528 70.4028 251.341C70.4353 251.154 70.6105 251.029 70.799 251.061C72.4546 251.349 74.1234 251.7 75.759 252.104C75.9426 252.149 76.0548 252.336 76.0095 252.52C75.9711 252.676 75.8312 252.781 75.6773 252.781Z" fill="white"/>
<path d="M71.43 254.693C71.4272 254.693 71.4244 254.693 71.4216 254.693C69.9397 254.657 68.4806 254.385 67.0842 253.884C66.906 253.821 66.8132 253.624 66.877 253.445C66.9408 253.267 67.137 253.174 67.315 253.238C68.6422 253.714 70.0291 253.972 71.4377 254.006C71.627 254.01 71.7766 254.168 71.772 254.358C71.7679 254.544 71.6155 254.693 71.43 254.693Z" fill="white"/>
<path d="M148.009 233.545C147.868 233.545 147.735 233.457 147.686 233.315C146.175 229.019 144.158 224.9 141.69 221.071C141.587 220.912 141.633 220.699 141.792 220.597C141.951 220.493 142.163 220.539 142.266 220.698C144.762 224.573 146.803 228.741 148.332 233.087C148.395 233.266 148.301 233.462 148.123 233.525C148.085 233.538 148.047 233.545 148.009 233.545Z" fill="white"/>
<path d="M152.153 254.47C151.975 254.47 151.824 254.332 151.812 254.15C151.487 249.416 150.646 244.707 149.313 240.152C149.259 239.97 149.364 239.779 149.545 239.726C149.727 239.673 149.917 239.777 149.971 239.959C151.318 244.561 152.167 249.32 152.496 254.103C152.509 254.292 152.366 254.456 152.177 254.469C152.169 254.47 152.161 254.47 152.153 254.47Z" fill="white"/>
<path d="M146.698 242.109C146.551 242.109 146.415 242.014 146.37 241.866C145.771 239.908 145.087 237.951 144.337 236.049C144.267 235.872 144.353 235.673 144.53 235.604C144.705 235.533 144.904 235.62 144.974 235.797C145.73 237.715 146.421 239.69 147.025 241.665C147.081 241.846 146.979 242.038 146.798 242.094C146.765 242.104 146.731 242.109 146.698 242.109Z" fill="white"/>
<path d="M143.386 232.38C143.258 232.38 143.136 232.308 143.077 232.186L142.258 230.478C142.176 230.307 142.248 230.102 142.418 230.02C142.588 229.937 142.794 230.01 142.875 230.18L143.695 231.888C143.777 232.059 143.705 232.264 143.534 232.346C143.487 232.369 143.436 232.38 143.386 232.38Z" fill="white"/>
<path d="M148.821 252.41C148.639 252.41 148.488 252.267 148.479 252.083C148.384 250.091 148.014 248.122 147.38 246.232C147.32 246.052 147.417 245.857 147.596 245.797C147.775 245.737 147.97 245.833 148.03 246.013C148.685 247.963 149.066 249.995 149.164 252.05C149.173 252.24 149.027 252.401 148.838 252.41C148.832 252.41 148.827 252.41 148.821 252.41Z" fill="white"/>
</svg>
