<svg width="24" height="24" viewBox="0 0 24 24" fill="none" xmlns="http://www.w3.org/2000/svg">
<path d="M12 21L10.55 19.7248C8.86667 18.2371 7.475 16.9537 6.375 15.8747C5.275 14.7956 4.4 13.8268 3.75 12.9682C3.1 12.1095 2.646 11.3209 2.388 10.6022C2.13 9.88349 2.00067 9.14779 2 8.39509C2 6.85831 2.525 5.57493 3.575 4.54496C4.625 3.51499 5.93333 3 7.5 3C8.36667 3 9.19167 3.17984 9.975 3.53951C10.7583 3.89918 11.4333 4.40599 12 5.05995C12.5667 4.40599 13.2417 3.89918 14.025 3.53951C14.8083 3.17984 15.6333 3 16.5 3C18.0667 3 19.375 3.51499 20.425 4.54496C21.475 5.57493 22 6.85831 22 8.39509C22 9.14714 21.871 9.88283 21.613 10.6022C21.355 11.3215 20.9007 12.1102 20.25 12.9682C19.5993 13.8262 18.7243 14.795 17.625 15.8747C16.5257 16.9543 15.134 18.2377 13.45 19.7248L12 21Z" fill="white"/>
</svg>
