<svg width="24" height="24" viewBox="0 0 24 24" fill="none" xmlns="http://www.w3.org/2000/svg">
<path d="M16.88 2.87993C16.7639 2.76352 16.6259 2.67116 16.4741 2.60815C16.3222 2.54513 16.1594 2.5127 15.995 2.5127C15.8306 2.5127 15.6678 2.54513 15.5159 2.60815C15.364 2.67116 15.2261 2.76352 15.11 2.87993L6.69998 11.2899C6.60727 11.3824 6.53372 11.4923 6.48354 11.6133C6.43336 11.7343 6.40753 11.864 6.40753 11.9949C6.40753 12.1259 6.43336 12.2556 6.48354 12.3766C6.53372 12.4975 6.60727 12.6074 6.69998 12.6999L15.11 21.1099C15.6 21.5999 16.39 21.5999 16.88 21.1099C17.37 20.6199 17.37 19.8299 16.88 19.3399L9.53998 11.9999L16.89 4.64993C17.37 4.15993 17.37 3.36993 16.88 2.87993Z" fill="black"/>
</svg>
