<svg width="16" height="16" viewBox="0 0 16 16" fill="none" xmlns="http://www.w3.org/2000/svg">
<path d="M11.3333 9.33325C11.975 9.33089 12.6023 9.14339 13.14 8.79325L13.3333 8.66659C13.4411 8.59429 13.5416 8.51168 13.6333 8.41992L13.7733 8.28659C13.8906 8.16686 13.9977 8.03752 14.0933 7.89992L14.1333 7.84659C14.2412 7.6873 14.3328 7.51755 14.4067 7.33992C14.4298 7.29009 14.4498 7.23888 14.4667 7.18659C14.5226 7.0505 14.5672 6.91002 14.6 6.76659L14.64 6.59992C14.6653 6.40098 14.6742 6.20031 14.6667 5.99992V1.33325L12.6667 3.33325H10L8 1.33325V5.99992C8 6.88397 8.35119 7.73182 8.97631 8.35694C9.60143 8.98206 10.4493 9.33325 11.3333 9.33325ZM12.6667 4.66659C12.7985 4.66659 12.9274 4.70568 13.037 4.77894C13.1467 4.85219 13.2321 4.95631 13.2826 5.07813C13.333 5.19995 13.3462 5.33399 13.3205 5.46331C13.2948 5.59263 13.2313 5.71142 13.1381 5.80466C13.0448 5.89789 12.926 5.96139 12.7967 5.98711C12.6674 6.01283 12.5334 5.99963 12.4115 5.94917C12.2897 5.89871 12.1856 5.81327 12.1124 5.70363C12.0391 5.594 12 5.46511 12 5.33325C12 5.15644 12.0702 4.98687 12.1953 4.86185C12.3203 4.73682 12.4899 4.66659 12.6667 4.66659ZM10 4.66659C10.1319 4.66659 10.2607 4.70568 10.3704 4.77894C10.48 4.85219 10.5655 4.95631 10.6159 5.07813C10.6664 5.19995 10.6796 5.33399 10.6539 5.46331C10.6281 5.59263 10.5646 5.71142 10.4714 5.80466C10.3782 5.89789 10.2594 5.96139 10.1301 5.98711C10.0007 6.01283 9.86669 5.99963 9.74488 5.94917C9.62306 5.89871 9.51894 5.81327 9.44569 5.70363C9.37243 5.594 9.33333 5.46511 9.33333 5.33325C9.33333 5.15644 9.40357 4.98687 9.5286 4.86185C9.65362 4.73682 9.82319 4.66659 10 4.66659Z" fill="#D78F45"/>
<path d="M7.33331 14.6666V11.3333H5.33331V14.6666H3.33331V7.93325C2.99422 7.884 2.6702 7.76046 2.38439 7.57145C2.09859 7.38245 1.85805 7.13266 1.67998 6.83992C1.465 6.48532 1.34556 6.08108 1.33331 5.66658C1.3454 5.33491 1.42521 5.00921 1.56784 4.70953C1.71047 4.40984 1.91289 4.1425 2.16267 3.92395C2.41245 3.70539 2.70429 3.54024 3.02026 3.43866C3.33623 3.33708 3.66964 3.30121 3.99998 3.33325C4.17786 3.34394 4.35599 3.31678 4.52261 3.25356C4.68922 3.19033 4.84053 3.09249 4.96654 2.96648C5.09255 2.84047 5.1904 2.68916 5.25362 2.52255C5.31684 2.35593 5.34401 2.1778 5.33331 1.99992C5.33331 1.82311 5.40355 1.65354 5.52857 1.52851C5.6536 1.40349 5.82317 1.33325 5.99998 1.33325C6.17679 1.33325 6.34636 1.40349 6.47138 1.52851C6.59641 1.65354 6.66665 1.82311 6.66665 1.99992C6.67678 2.35286 6.61473 2.70415 6.4843 3.03227C6.35387 3.36039 6.15781 3.65841 5.90814 3.90808C5.65847 4.15775 5.36045 4.35381 5.03233 4.48424C4.70422 4.61467 4.35292 4.67671 3.99998 4.66658C2.79331 4.66658 2.66665 5.43992 2.66665 5.67325C2.66665 5.90659 2.78665 6.66658 3.99998 6.66658H7.39331C7.49124 7.24091 7.71344 7.7869 8.04439 8.2664C8.37533 8.74589 8.80702 9.1473 9.30928 9.44255C9.81153 9.73781 10.3722 9.91979 10.9521 9.97576C11.5321 10.0317 12.1172 9.96034 12.6666 9.76658V14.6666H10.6666V11.3333H9.33331V14.6666H7.33331Z" fill="#D78F45"/>
</svg>
