<svg width="16" height="16" viewBox="0 0 16 16" fill="none" xmlns="http://www.w3.org/2000/svg">
<path d="M14 3.99992H12.6666L11.82 3.15325C11.5134 2.84733 11.0997 2.67279 10.6666 2.66659H8.99998C8.9066 2.29245 8.69294 1.95934 8.39182 1.71845C8.09071 1.47756 7.71882 1.34222 7.33331 1.33325V5.57325C7.36757 6.24654 7.63374 6.88723 8.08665 7.38659C8.83236 8.10346 9.80772 8.53328 10.84 8.59992L13.14 7.67992C13.4098 7.57159 13.6528 7.40572 13.852 7.19387C14.0512 6.98201 14.2018 6.72927 14.2933 6.45325L14.6666 5.43325C14.6774 5.36478 14.6774 5.29506 14.6666 5.22659V4.66659C14.6666 4.48977 14.5964 4.32021 14.4714 4.19518C14.3464 4.07016 14.1768 3.99992 14 3.99992ZM10.6666 5.33325C10.5348 5.33325 10.4059 5.29415 10.2963 5.2209C10.1866 5.14764 10.1012 5.04352 10.0507 4.92171C10.0003 4.79989 9.98707 4.66585 10.0128 4.53653C10.0385 4.4072 10.102 4.28842 10.1952 4.19518C10.2885 4.10195 10.4073 4.03845 10.5366 4.01273C10.6659 3.987 10.8 4.00021 10.9218 4.05067C11.0436 4.10112 11.1477 4.18657 11.221 4.29621C11.2942 4.40584 11.3333 4.53473 11.3333 4.66659C11.3333 4.8434 11.2631 5.01297 11.1381 5.13799C11.013 5.26301 10.8435 5.33325 10.6666 5.33325Z" fill="#D78F45"/>
<path d="M7.58665 7.82667C7.1216 7.31734 6.81772 6.68175 6.71331 6H3.99998C3.82183 6.01179 3.64323 5.98537 3.47612 5.92254C3.30901 5.8597 3.15725 5.76188 3.03101 5.63564C2.90476 5.5094 2.80695 5.35764 2.74411 5.19053C2.68127 5.02342 2.65486 4.84481 2.66665 4.66667C2.66665 4.48986 2.59641 4.32029 2.47138 4.19526C2.34636 4.07024 2.17679 4 1.99998 4C1.82317 4 1.6536 4.07024 1.52858 4.19526C1.40355 4.32029 1.33331 4.48986 1.33331 4.66667C1.34023 5.12929 1.44951 5.58463 1.65331 6C1.87892 6.43557 2.23257 6.79154 2.66665 7.02V14.6667H4.66665V11.3333H8.66665V14.6667H10.6666V9.24667C9.50368 9.15506 8.41155 8.65155 7.58665 7.82667Z" fill="#D78F45"/>
</svg>
