<svg width="12" height="12" viewBox="0 0 12 12" fill="none" xmlns="http://www.w3.org/2000/svg">
<path d="M3.5 4.75002C3.50011 3.90372 3.78648 3.08234 4.31255 2.41942C4.83863 1.75649 5.57348 1.29101 6.39762 1.09865C7.22177 0.906285 8.08676 0.998351 8.85195 1.35988C9.61714 1.72141 10.2375 2.33114 10.6123 3.08994C10.9871 3.84875 11.0941 4.712 10.9161 5.53936C10.7381 6.36673 10.2854 7.10954 9.6317 7.64704C8.978 8.18455 8.16172 8.48513 7.31555 8.49992C6.46938 8.51471 5.64308 8.24285 4.971 7.72852L4.077 8.62202L4.79 9.33502C4.83775 9.38114 4.87585 9.43632 4.90205 9.49732C4.92825 9.55832 4.94205 9.62393 4.94262 9.69032C4.9432 9.75671 4.93055 9.82255 4.90541 9.884C4.88027 9.94545 4.84314 10.0013 4.7962 10.0482C4.74925 10.0952 4.69342 10.1323 4.63198 10.1574C4.57053 10.1826 4.50469 10.1952 4.4383 10.1946C4.37191 10.1941 4.3063 10.1803 4.2453 10.1541C4.1843 10.1279 4.12912 10.0898 4.083 10.042L3.37 9.32952L2.31 10.3895C2.21618 10.4833 2.08896 10.5359 1.95632 10.5359C1.82369 10.5358 1.6965 10.4831 1.60275 10.3893C1.509 10.2955 1.45635 10.1682 1.4564 10.0356C1.45644 9.90296 1.50918 9.77577 1.603 9.68202L2.663 8.62202L1.9615 7.92052C1.91374 7.8744 1.87565 7.81922 1.84945 7.75822C1.82324 7.69722 1.80945 7.63161 1.80887 7.56522C1.8083 7.49883 1.82095 7.43299 1.84609 7.37154C1.87123 7.3101 1.90836 7.25427 1.9553 7.20732C2.00225 7.16038 2.05807 7.12325 2.11952 7.09811C2.18097 7.07297 2.24681 7.06032 2.3132 7.0609C2.37959 7.06147 2.4452 7.07527 2.5062 7.10147C2.5672 7.12768 2.62238 7.16577 2.6685 7.21352L3.37 7.91502L4.265 7.02002C3.76769 6.36787 3.49886 5.57016 3.5 4.75002Z" fill="#FF7A87"/>
</svg>
