<svg width="12" height="12" viewBox="0 0 12 12" fill="none" xmlns="http://www.w3.org/2000/svg">
<path d="M10.5 4.5C10.5 4.63261 10.4473 4.75979 10.3535 4.85355C10.2598 4.94732 10.1326 5 9.99998 5C9.86738 5 9.7402 4.94732 9.64643 4.85355C9.55266 4.75979 9.49998 4.63261 9.49998 4.5V3.207L7.73148 4.9755C8.30841 5.73176 8.57639 6.679 8.48116 7.62541C8.38593 8.57183 7.93461 9.44669 7.21858 10.0729C6.50256 10.699 5.57533 11.0297 4.62467 10.9979C3.67401 10.9661 2.77095 10.5742 2.09835 9.90163C1.42576 9.22904 1.03389 8.32598 1.0021 7.37531C0.970306 6.42465 1.30097 5.49743 1.92713 4.7814C2.55329 4.06537 3.42815 3.61405 4.37457 3.51882C5.32098 3.42359 6.26822 3.69157 7.02448 4.2685L8.79298 2.5H7.49998C7.36738 2.5 7.2402 2.44732 7.14643 2.35355C7.05266 2.25979 6.99998 2.13261 6.99998 2C6.99998 1.86739 7.05266 1.74021 7.14643 1.64645C7.2402 1.55268 7.36738 1.5 7.49998 1.5H9.87498C10.22 1.5 10.5 1.78 10.5 2.125V4.5Z" fill="#4492B9"/>
</svg>
