<svg width="16" height="16" viewBox="0 0 16 16" fill="none" xmlns="http://www.w3.org/2000/svg">
<path d="M8 14L6.985 13.1499C5.80667 12.158 4.8325 11.3025 4.0625 10.5831C3.2925 9.86376 2.68 9.21788 2.225 8.64545C1.77 8.07303 1.4522 7.54725 1.2716 7.06812C1.091 6.58899 1.00047 6.09853 1 5.59673C1 4.57221 1.3675 3.71662 2.1025 3.02997C2.8375 2.34332 3.75333 2 4.85 2C5.45667 2 6.03417 2.11989 6.5825 2.35967C7.13083 2.59945 7.60333 2.93733 8 3.3733C8.39667 2.93733 8.86917 2.59945 9.4175 2.35967C9.96583 2.11989 10.5433 2 11.15 2C12.2467 2 13.1625 2.34332 13.8975 3.02997C14.6325 3.71662 15 4.57221 15 5.59673C15 6.09809 14.9097 6.58856 14.7291 7.06812C14.5485 7.54768 14.2305 8.07346 13.775 8.64545C13.3195 9.21744 12.707 9.86332 11.9375 10.5831C11.168 11.3029 10.1938 12.1585 9.015 13.1499L8 14ZM8 12.2343C9.12 11.297 10.0417 10.4933 10.765 9.82322C11.4883 9.15313 12.06 8.57003 12.48 8.0739C12.9 7.57777 13.1917 7.13613 13.355 6.74899C13.5183 6.36185 13.6 5.97777 13.6 5.59673C13.6 4.94278 13.3667 4.39782 12.9 3.96185C12.4333 3.52589 11.85 3.3079 11.15 3.3079C10.6017 3.3079 10.0942 3.45221 9.6275 3.74082C9.16083 4.02943 8.84 4.39738 8.665 4.84469H7.335C7.16 4.39782 6.83917 4.03008 6.3725 3.74147C5.90583 3.45286 5.39833 3.30834 4.85 3.3079C4.15 3.3079 3.56667 3.52589 3.1 3.96185C2.63333 4.39782 2.4 4.94278 2.4 5.59673C2.4 5.9782 2.48167 6.36251 2.645 6.74965C2.80833 7.13678 3.1 7.5782 3.52 8.0739C3.94 8.56959 4.51167 9.1527 5.235 9.82322C5.95833 10.4937 6.88 11.2974 8 12.2343Z" fill="#FF7A87"/>
</svg>
