<svg width="12" height="12" viewBox="0 0 12 12" fill="none" xmlns="http://www.w3.org/2000/svg">
<path d="M2.99902 1C2.99902 1.2565 3.24402 1.5 3.49902 1.5H8.49902C8.75552 1.5 8.99902 1.255 8.99902 1H9.99902C9.99902 1.39782 9.84099 1.77936 9.55968 2.06066C9.27838 2.34196 8.89685 2.5 8.49902 2.5H6.49902L6.49952 3.531C7.46613 3.6529 8.35501 4.12339 8.99933 4.85417C9.64366 5.58494 9.99913 6.52574 9.99902 7.5V10.5C9.99902 10.6326 9.94634 10.7598 9.85258 10.8536C9.75881 10.9473 9.63163 11 9.49902 11H2.49902C2.36642 11 2.23924 10.9473 2.14547 10.8536C2.0517 10.7598 1.99902 10.6326 1.99902 10.5V7.5C1.99893 6.52566 2.35447 5.5848 2.9989 4.85402C3.64333 4.12323 4.53233 3.65279 5.49902 3.531V2.5H3.49902C2.66902 2.5 1.99902 1.83 1.99902 1H2.99902ZM5.99902 5.5C5.55797 5.50006 5.12932 5.64591 4.77975 5.91486C4.43019 6.1838 4.17933 6.56075 4.06621 6.98704C3.95309 7.41334 3.98406 7.86507 4.15429 8.27194C4.32452 8.67882 4.62447 9.01801 5.00747 9.23673C5.39046 9.45546 5.83501 9.54145 6.27194 9.48133C6.70887 9.42121 7.11368 9.21834 7.42336 8.9043C7.73305 8.59027 7.93024 8.18267 7.98425 7.74494C8.03827 7.30721 7.94608 6.8639 7.72202 6.484L6.35252 7.854L6.30552 7.895C6.20503 7.97271 6.07872 8.00925 5.95226 7.9972C5.8258 7.98515 5.70866 7.92542 5.62465 7.83014C5.54063 7.73486 5.49603 7.61117 5.49991 7.48419C5.50379 7.35722 5.55585 7.23648 5.64552 7.1465L7.01502 5.7765C6.70713 5.59524 6.35631 5.49976 5.99902 5.5Z" fill="#FF7A87"/>
</svg>
